<svg viewBox="0 0 567.002 102.436">
  <title>AirMagnet</title>
  <path
    d="m66.197,20.203s42.777,37.609,26.799,53.637c-16.654,16.759-57.194-10.422-64.795-17.621,0,0,40.45,28.059,58.187,11.32,0,0,14.982-10.262-20.191-47.336"
  ></path>
  <path
    d="m66.556,0s74.265,64.766,46.407,91.384C83.915,119.116,11.075,69.205,0,58.26c0,0,70.51,50.384,101.445,22.661,0,0,26.44-19.401-34.889-80.921"
  ></path>
  <path
    d="m143.018,99.406c2.331-4.684,7.846-15.955,8.267-16.773h20.676c.425.818,5.988,12.101,8.334,16.773h10.928l-29.362-58.677-1.012,1.961-28.271,56.716h10.44m18.608-38.358c1.291,2.627,5.051,10.136,6.115,12.316h-12.158c1.038-2.181,4.764-9.682,6.043-12.316Z"
  ></path>
  <polyline
    points="204.849 99.371 204.849 42.42 195.406 42.42 194.958 42.5 194.958 99.371 204.849 99.371"
  ></polyline>
  <path
    d="m225.014,99.469v-24.664c2.473,3.617,13.731,20.137,16.874,24.664h13.006c-3.369-4.586-16.54-22.793-17.805-24.605,7.432-2.079,11.495-7.134,11.495-14.681,0-13.01-10.212-17.651-18.96-17.651h-14.5v56.937h9.89m0-47.68h4.532c4.166,0,9.154,1.469,9.154,8.394,0,5.659-4.721,8.71-9.154,8.71h-4.532v-17.103Z"
  ></path>
  <path
    d="m309.319,99.469h9.879l-11.861-59.485-1.496,2.988s-15.989,35.728-17.678,39.57c-1.728-3.832-19.262-42.534-19.262-42.534l-.79,3.186-11.14,56.274h9.786c1.184-6.359,4.943-26.435,5.712-30.635,2.147,4.631,15.63,33.603,15.63,33.603l1.092-2.11s12.172-26.792,14.283-31.468c.802,4.231,4.634,24.261,5.846,30.61"
  ></path>
  <path
    d="m331.591,99.469c2.277-4.572,7.939-16.128,8.373-16.965h20.658c.435.837,6.151,12.399,8.442,16.965h10.345l.524-.101-29.322-58.656-1.087,1.853-28.316,56.788.573.115h9.81m18.711-38.539c1.288,2.628,5.051,10.129,6.113,12.31h-12.167c1.048-2.181,4.769-9.682,6.054-12.31Z"
  ></path>
  <path
    d="m469.286,42.473v35.001c-3.256-3.54-35.029-38.209-35.029-38.209l-.149,2.697v57.507h9.887v-35.849c3.256,3.537,35.022,38.22,35.022,38.22l.159-2.701v-56.666h-9.89"
  ></path>
  <path
    d="m519.239,89.936h-20.828v-15.607h18.377v-9.269h-18.377v-13.323h20.828v-9.265h-30.718v56.732h30.718v-9.268"
  ></path>
  <path
    d="m560.92,42.531h-34.478v9.258h12.857v47.68h9.88v-47.68h12.74v-9.258h-1"
  ></path>
  <path
    d="m404.768,66.675v9.265h13.076v11.365c-2.854,2.746-7.505,4.388-12.893,4.388-10.352,0-18.391-10.657-18.391-19.738,0-11.569,8.893-21.043,19.824-21.043,6.405,0,10.605,2.686,14.351,5.433l.781.594.062-.076v-11.3c-4.422-2.496-9.851-3.916-15.51-3.916-16.478,0-29.395,13.309-29.395,30.309,0,15.395,13.326,28.875,28.517,28.875,9.133,0,18.297-3.423,22.311-8.258l.228-.285v-25.611h-22.963"
  ></path>
  <path
    d="m560.934,87.523c3.353,0,6.068,2.753,6.068,6.169,0,3.475-2.715,6.199-6.1,6.199-3.356,0-6.116-2.725-6.116-6.199,0-3.416,2.76-6.169,6.116-6.169h.031m-.031,1.041c-2.725,0-4.988,2.239-4.988,5.128,0,2.95,2.264,5.283,5.019,5.283,2.76.024,4.908-2.333,4.908-5.259s-2.148-5.152-4.908-5.152h-.031Zm-1.101,8.703h-1.18v-6.855c.548-.077,1.211-.156,1.992-.156,1,0,1.656.211,2.128.492.44.292.652.872.652,1.5,0,.868-.61,1.392-1.412,1.603v.053c.61.103,1.1.767,1.239,1.735.152,1.024.305,1.413.409,1.628h-1.228c-.149-.215-.319-.812-.451-1.684-.149-.844-.569-1.288-1.417-1.288h-.732v2.972Zm0-3.78h.761c.864,0,1.6-.315,1.6-1.132,0-.58-.413-1.288-1.6-1.288-.348,0-.58.024-.761.053v2.367Z"
  ></path>
</svg>
