<?xml version="1.0" encoding="utf-8"?>
<!-- Generator: Adobe Illustrator 27.9.4, SVG Export Plug-In . SVG Version: 9.03 Build 54784)  -->
<svg version="1.1" id="Layer_1" xmlns="http://www.w3.org/2000/svg" xmlns:xlink="http://www.w3.org/1999/xlink" x="0px" y="0px"
	 viewBox="0 0 192.8 192.8" style="enable-background:new 0 0 192.8 192.8;" xml:space="preserve">
<g>
	<path d="M114.9,83.8h11.6c6.1,0,7.6,3.9,7.6,6.5c0,3.6-1.7,4.7-2.7,5.2c3,1.2,4.2,3.7,4.2,6.2c0,1.9-0.8,3.8-2.1,5.2
		c-1.4,1.4-2.8,2.3-7.8,2.3h-10.7V83.8z M120,104.8h6.4c2.5,0,4-1.1,4-3.7c0-2.2-1.9-3.1-3.7-3.1H120L120,104.8
		C120,104.8,120,104.8,120,104.8z M120,93.7h5.4c2,0,3.6-0.8,3.6-2.8c0-2.1-1.4-2.7-3.8-2.7H120C120,88.2,120,93.7,120,93.7z
		 M161.4,83.1c-3.3,0-11.7,1.4-11.7,13.3c0,3.6,0.8,6.3,2,8.2H143V83.8h-5.5v25.3h16.2V107c2.6,2.3,5.9,2.7,7.7,2.7
		c3.3,0,11.7-1.4,11.7-13.3C173.1,84.6,164.7,83.1,161.4,83.1L161.4,83.1z M161.4,105.2c-2.8,0-6.5-1.8-6.5-8.8
		c0-7.1,3.7-8.8,6.5-8.8s6.5,1.8,6.5,8.8C167.9,103.5,164.2,105.2,161.4,105.2z"/>
	<path d="M184.6,109.1h-5.6v-9.5l-8.5-15.8h6.1l5.4,11.1l5.2-11.1h5.8l-8.3,15.9L184.6,109.1L184.6,109.1z M75.1,83.8H69L62,103.6
		c0.2-0.7,0.2-1.4,0.2-2.2c0-4.3-3.2-5.8-6.6-6.7l-5.9-1.5c-1-0.2-2.5-0.8-2.5-2.8c0-2.3,2.4-3,4.4-3c4.6,0,5,2.7,5.2,3.8l5.1-0.3
		c-0.1-2.8-2.5-7.9-9.9-7.8c-8.2,0.1-9.7,5-9.7,7.8c0,5.6,4.3,6.5,7.9,7.4l2.4,0.6c2.7,0.6,4.6,1.2,4.6,3.1c0,2.7-2.8,3.3-5.3,3.3
		c-4,0-5-2.7-5-4.1l-4.6,0.2v0c0-4.6-3.6-6-7-6.8l-6-1.5c-1-0.2-2.5-0.7-2.5-2.6c0-2.3,2.1-3,4.1-3c4.6,0,5,2.7,5.2,3.8l5.1-0.4
		c-0.1-2.8-2.4-7.9-9.9-7.8c-8.2,0.1-9.5,5-9.5,7.8c0,5.6,4.8,6.5,8.4,7.5l2.1,0.5c2.7,0.6,4.8,1.2,4.8,3.2c0,2.7-2.7,3.3-5.2,3.3
		c-4.8,0-5.6-2.7-5.6-4.1l-4.9,0.3v0.2L15,83.8H8.9l-9,25.3h5.6l1.8-5.2h9.3l1.6,5.2h5.8l-1.4-3.9c1.5,2.3,4.4,4.5,9.6,4.5
		c1.9,0,8-0.5,9.6-5.6c1.2,2.6,4.2,5.6,10.4,5.6c1.8,0,7.1-0.4,9.2-4.6l-1.4,4h5.6l1.8-5.2h9.3l1.6,5.2h5.8L75.1,83.8L75.1,83.8z
		 M8.6,99.5l3.2-10H12l3.1,10H8.6z M68.7,99.5l3.2-10h0.1l3.1,10H68.7z M95.8,109.1h-5.6l9-25.3h6.1l8.9,25.3h-5.8l-1.6-5.2h-9.3
		L95.8,109.1z M98.9,99.5h6.4l-3.1-10h-0.1L98.9,99.5z"/>
</g>
</svg>
