<?xml version="1.0" encoding="utf-8"?>
<!-- Generator: Adobe Illustrator 27.9.4, SVG Export Plug-In . SVG Version: 9.03 Build 54784)  -->
<svg version="1.1" id="Layer_1" xmlns="http://www.w3.org/2000/svg" xmlns:xlink="http://www.w3.org/1999/xlink" x="0px" y="0px"
	 viewBox="0 0 165.8 35.4" style="enable-background:new 0 0 165.8 35.4;" xml:space="preserve">
<g>
	<g>
		<path d="M0,1.7c1.5-0.3,4.7-0.5,7.6-0.5c3.6,0,5.8,0.4,7.7,1.5c1.8,1,3.1,2.7,3.1,5.1s-1.4,4.5-4.3,5.6v0.1c3,0.8,5.2,3,5.2,6.4
			c0,2.4-1.1,4.2-2.7,5.5c-1.9,1.5-5,2.4-10.2,2.4c-2.9,0-5-0.2-6.3-0.4C0,27.2,0,1.7,0,1.7z M5.8,11.7h1.9c3.1,0,4.7-1.3,4.7-3.2
			s-1.5-3-4.2-3c-1.3,0-2,0.1-2.5,0.2L5.8,11.7L5.8,11.7z M5.8,23.2c0.6,0.1,1.3,0.1,2.3,0.1c2.7,0,5-1,5-3.7s-2.4-3.7-5.3-3.7h-2
			V23.2z"/>
		<path d="M20.8,14.7c0-2.8-0.1-4.6-0.1-6.2h5l0.2,3.5H26c1-2.7,3.3-3.9,5.1-3.9c0.5,0,0.8,0,1.2,0.1v5.6c-0.4-0.1-0.9-0.2-1.6-0.2
			c-2.2,0-3.6,1.2-4,3c-0.1,0.4-0.1,0.9-0.1,1.3v9.6h-5.9L20.8,14.7L20.8,14.7z"/>
		<path d="M40.7,3.3c0,1.6-1.2,2.9-3.2,2.9s-3.1-1.3-3-2.9c0-1.7,1.2-3,3.1-3S40.6,1.6,40.7,3.3z M34.6,27.3V8.5h5.8v18.8H34.6z"/>
		<path d="M61.5,24.6c0,3.6-0.7,6.6-2.8,8.5c-2.1,1.8-4.9,2.3-7.7,2.3c-2.5,0-5.1-0.5-6.8-1.5l1.2-4.4c1.2,0.7,3.3,1.4,5.5,1.4
			c2.8,0,4.9-1.5,4.9-5v-1.2h-0.1c-1.1,1.6-2.9,2.5-5.1,2.5c-4.7,0-8-3.8-8-9.2c0-6.1,3.9-9.9,8.5-9.9c2.6,0,4.2,1.1,5.2,2.7h0.1
			l0.2-2.2h5.1c-0.1,1.2-0.2,2.8-0.2,5.6L61.5,24.6L61.5,24.6z M55.6,16.2c0-0.4,0-0.8-0.1-1.1c-0.4-1.5-1.5-2.6-3.2-2.6
			c-2.1,0-3.8,1.9-3.8,5.4c0,2.8,1.4,5,3.8,5c1.5,0,2.7-1,3.1-2.4c0.2-0.4,0.2-1,0.2-1.5L55.6,16.2L55.6,16.2z"/>
		<path d="M64.6,0h5.8v10.7h0.1c0.6-0.8,1.4-1.5,2.3-1.9c0.9-0.5,2-0.7,3-0.7c3.7,0,6.6,2.6,6.6,8.2v11h-5.8V17c0-2.5-0.8-4.2-3-4.2
			c-1.5,0-2.5,1-2.9,2c-0.2,0.4-0.2,0.9-0.2,1.3v11.2h-5.8V0z"/>
		<path d="M92.2,3.4v5.1h4.2v4.3h-4.2v6.8c0,2.3,0.5,3.3,2.3,3.3c0.8,0,1.2,0,1.7-0.1l0,4.4c-0.8,0.3-2.2,0.5-3.8,0.5
			c-1.9,0-3.5-0.7-4.4-1.7c-1.1-1.1-1.6-2.9-1.6-5.6v-7.7H84V8.5h2.5V5L92.2,3.4L92.2,3.4z"/>
		<path d="M99.1,23.3c1.5,0.9,3.7,1.7,6,1.7c3.4,0,5.4-1.8,5.4-4.4c0-2.4-1.4-3.8-4.9-5.2c-4.2-1.5-6.8-3.7-6.8-7.4
			c0-4,3.3-7.1,8.4-7.1c2.7,0,4.6,0.6,5.7,1.3L112,4.9c-0.8-0.5-2.6-1.2-4.9-1.2c-3.5,0-4.9,2.1-4.9,3.9c0,2.4,1.6,3.6,5.2,5
			c4.4,1.7,6.6,3.8,6.6,7.6c0,4-3,7.5-9.1,7.5c-2.5,0-5.2-0.8-6.6-1.7L99.1,23.3L99.1,23.3z"/>
		<path d="M120.7,3.5c0,1.2-0.8,2.1-2.2,2.1c-1.2,0-2-0.9-2-2.1s0.9-2.1,2.1-2.1S120.7,2.3,120.7,3.5z M116.9,27.3V8.7h3.4v18.6
			L116.9,27.3L116.9,27.3z"/>
		<path d="M140.3,24.6c0,4.3-0.9,6.9-2.7,8.5c-1.8,1.7-4.4,2.2-6.8,2.2s-4.7-0.5-6.2-1.5l0.8-2.6c1.2,0.8,3.2,1.5,5.5,1.5
			c3.5,0,6-1.8,6-6.5v-2.1h-0.1c-1,1.7-3,3.1-5.9,3.1c-4.6,0-7.9-3.9-7.9-9.1c0-6.3,4.1-9.9,8.4-9.9c3.2,0,5,1.7,5.8,3.2h0.1
			l0.1-2.8h3c-0.1,1.4-0.1,2.9-0.1,5.1V24.6L140.3,24.6z M136.9,16.1c0-0.6,0-1.1-0.2-1.5c-0.6-2-2.3-3.6-4.7-3.6
			c-3.2,0-5.5,2.7-5.5,7.1c0,3.7,1.8,6.7,5.5,6.7c2.1,0,4-1.3,4.7-3.5c0.2-0.6,0.3-1.2,0.3-1.8L136.9,16.1L136.9,16.1z"/>
		<path d="M143.6,13.8c0-1.9,0-3.5-0.1-5.1h3l0.2,3.1h0.1c0.9-1.8,3.1-3.5,6.2-3.5c2.6,0,6.6,1.5,6.6,7.9v11.1h-3.4V16.6
			c0-3-1.1-5.5-4.3-5.5c-2.2,0-4,1.6-4.5,3.5c-0.1,0.4-0.2,1-0.2,1.6v11.2h-3.4L143.6,13.8L143.6,13.8z"/>
	</g>
	<path d="M163.1,7.6c1.5,0,2.6,1.2,2.6,2.6s-1.2,2.6-2.7,2.6s-2.7-1.1-2.7-2.6S161.6,7.6,163.1,7.6L163.1,7.6z M163.1,8.2
		c-1.1,0-2,0.9-2,2.1s0.9,2.1,2,2.1c1.1,0,2-0.9,2-2.1S164.3,8.2,163.1,8.2L163.1,8.2L163.1,8.2z M162.7,11.6h-0.6V9
		c0.2-0.1,0.6-0.1,1-0.1c0.5,0,0.7,0.1,0.9,0.2c0.1,0.1,0.2,0.3,0.2,0.6c0,0.3-0.2,0.5-0.5,0.6v0c0.2,0.1,0.4,0.3,0.5,0.6
		c0.1,0.4,0.1,0.6,0.2,0.6h-0.6c-0.1-0.1-0.1-0.3-0.2-0.6c-0.1-0.3-0.2-0.4-0.5-0.4h-0.3V11.6z M162.7,10.1h0.3
		c0.3,0,0.6-0.1,0.6-0.4c0-0.2-0.2-0.4-0.6-0.4c-0.2,0-0.3,0-0.3,0L162.7,10.1L162.7,10.1z"/>
</g>
</svg>
