<svg viewBox="0 0 100 38" xmlns="http://www.w3.org/2000/svg">
  <title>ekahau</title>
  <g clip-path="url(#clip0)">
    <path
      fill-rule="evenodd"
      clip-rule="evenodd"
      d="M81.3819 34.844H83.5807V37.1895C83.4318 37.3266 83.2674 37.4459 83.0908 37.5452C82.9122 37.6452 82.7245 37.7283 82.5303 37.7934C82.3351 37.8622 82.1339 37.9131 81.9294 37.9455C81.7293 37.9782 81.527 37.995 81.3242 37.9957C80.9299 38.0018 80.5382 37.9307 80.1715 37.7863C79.8435 37.6535 79.5506 37.4473 79.3156 37.1837C79.0721 36.9033 78.8909 36.5747 78.7839 36.2197C78.6578 35.8011 78.597 35.3656 78.6038 34.9286C78.596 34.4837 78.6627 34.0405 78.8012 33.6174C78.917 33.2616 79.1032 32.9323 79.3487 32.6491C79.5784 32.3895 79.8641 32.185 80.1844 32.0509C80.5209 31.9119 80.8821 31.8421 81.2464 31.8458C81.5419 31.8412 81.8363 31.8813 82.1196 31.9648C82.3493 32.0313 82.5636 32.1423 82.7501 32.2915C82.9365 32.4407 83.0915 32.6251 83.2061 32.8342C83.3251 33.0491 83.4139 33.2794 83.4698 33.5184L82.7363 33.6418C82.6957 33.4798 82.6367 33.3229 82.5605 33.1742C82.4881 33.0359 82.3903 32.9123 82.2724 32.8098C82.1488 32.7036 82.0046 32.624 81.8487 32.5759C81.6525 32.5173 81.4483 32.4897 81.2435 32.4942C80.9643 32.4879 80.6876 32.5485 80.4366 32.6706C80.2074 32.7873 80.0098 32.957 79.8602 33.1655C79.6974 33.3979 79.5787 33.658 79.5101 33.933C79.4275 34.2555 79.3873 34.5873 79.3905 34.92C79.3874 35.253 79.4261 35.585 79.5058 35.9084C79.5726 36.1851 79.6946 36.4456 79.8646 36.6745C80.0228 36.8854 80.2306 37.0543 80.4697 37.1665C80.7385 37.287 81.031 37.3458 81.3257 37.3387C81.6078 37.341 81.8889 37.3053 82.1614 37.2325C82.4151 37.1649 82.654 37.0511 82.866 36.8968V35.4981H81.3819V34.844ZM50.4231 36.6828C50.3396 36.5304 50.2883 36.3625 50.2723 36.1896L49.513 36.1953C49.5315 36.4814 49.6101 36.7604 49.7435 37.0145C49.865 37.2386 50.0366 37.432 50.245 37.5797C50.468 37.7334 50.7184 37.8434 50.9827 37.9039C51.2915 37.9757 51.6079 38.0104 51.9251 38.0072C52.2461 38.013 52.5661 37.9684 52.8732 37.8752C53.1181 37.8 53.3457 37.6777 53.5432 37.5151C53.7166 37.3683 53.8545 37.1844 53.9467 36.9772C54.0383 36.7692 54.085 36.5444 54.0836 36.3173C54.0807 35.8066 53.9366 35.4173 53.6513 35.1495C53.366 34.8818 52.9188 34.6905 52.3098 34.5757L51.4856 34.4323C51.3118 34.402 51.1411 34.3564 50.9755 34.296C50.8525 34.2532 50.7394 34.1863 50.6426 34.0995C50.5596 34.0234 50.4972 33.9276 50.4611 33.8212C50.4232 33.7005 50.4052 33.5745 50.4078 33.4482C50.4072 33.3206 50.4306 33.1941 50.4769 33.0752C50.5263 32.955 50.6074 32.8504 50.7118 32.7725C50.8414 32.6781 50.9882 32.6099 51.1441 32.5717C51.365 32.5171 51.5923 32.492 51.8199 32.4971C52.0222 32.4929 52.2242 32.5151 52.4207 32.563C52.5707 32.5998 52.7121 32.665 52.8372 32.7553C52.9497 32.8411 53.0421 32.9503 53.1081 33.0752C53.1814 33.2144 53.238 33.3617 53.2766 33.5142L53.9856 33.3707C53.9409 33.1769 53.8757 32.9884 53.791 32.8084C53.703 32.6208 53.5752 32.4544 53.4164 32.3206C53.2289 32.1663 53.0124 32.0507 52.7795 31.9806C52.4625 31.888 52.1329 31.8449 51.8026 31.8529C51.5143 31.8508 51.2268 31.884 50.9467 31.9519C50.7019 32.0092 50.4702 32.1119 50.2637 32.2546C50.0748 32.3883 49.9182 32.5623 49.8055 32.7639C49.6897 32.9805 49.6317 33.223 49.6369 33.4683C49.6307 33.7062 49.6713 33.943 49.7565 34.1654C49.8324 34.3522 49.9543 34.517 50.1109 34.6446C50.2833 34.7822 50.4783 34.889 50.6873 34.9602C50.9387 35.049 51.1977 35.1148 51.4611 35.1567L52.2032 35.2887C52.3886 35.3175 52.5697 35.3696 52.7421 35.4436C52.8656 35.4988 52.9775 35.5767 53.072 35.6732C53.1478 35.7545 53.2027 35.853 53.232 35.9601C53.2598 36.0688 53.2738 36.1806 53.2738 36.2929C53.2739 36.4309 53.2515 36.568 53.2075 36.6989C53.1625 36.8273 53.0863 36.9427 52.9856 37.0346C52.8646 37.1394 52.7227 37.2176 52.5692 37.2641C52.3594 37.3266 52.141 37.3557 51.9222 37.3502C51.4073 37.3502 51.0192 37.2588 50.7579 37.0762C50.6206 36.9691 50.5066 36.8353 50.4231 36.6828ZM44.2364 36.1896C44.2525 36.3633 44.3043 36.5319 44.3886 36.6849C44.4728 36.8379 44.5878 36.9721 44.7263 37.079C44.9876 37.2617 45.3757 37.353 45.8905 37.353C46.1094 37.3585 46.3278 37.3295 46.5375 37.2669C46.691 37.2205 46.8329 37.1423 46.954 37.0374C47.0547 36.9455 47.1309 36.8302 47.1759 36.7017C47.2199 36.5709 47.2423 36.4338 47.2421 36.2957C47.2422 36.1835 47.2281 36.0717 47.2003 35.9629C47.1711 35.8558 47.1162 35.7574 47.0404 35.676C46.9459 35.5795 46.8339 35.5017 46.7104 35.4465C46.5381 35.3724 46.357 35.3204 46.1715 35.2916L45.4295 35.1596C45.1661 35.1177 44.9071 35.0519 44.6557 34.963C44.4468 34.8915 44.2518 34.7848 44.0793 34.6474C43.9226 34.5199 43.8007 34.3551 43.7248 34.1683C43.6397 33.9459 43.5991 33.709 43.6052 33.4711C43.5997 33.2256 43.6583 32.9829 43.7753 32.7667C43.887 32.5649 44.0432 32.3908 44.232 32.2575C44.4386 32.1148 44.6703 32.0121 44.915 31.9548C45.1952 31.8869 45.4826 31.8536 45.771 31.8558C46.1013 31.8478 46.4308 31.8908 46.7479 31.9835C46.9808 32.0535 47.1973 32.1691 47.3848 32.3235C47.5434 32.4577 47.6716 32.6239 47.7609 32.8112C47.8444 32.9916 47.9091 33.18 47.954 33.3736L47.245 33.517C47.2064 33.3646 47.1498 33.2173 47.0764 33.078C47.0105 32.9531 46.918 32.844 46.8055 32.7581C46.6805 32.6679 46.5391 32.6026 46.3891 32.5659C46.1926 32.5179 45.9906 32.4958 45.7882 32.4999C45.5607 32.4948 45.3334 32.5199 45.1124 32.5745C44.9566 32.6127 44.8097 32.681 44.6802 32.7753C44.5758 32.8532 44.4946 32.9578 44.4453 33.078C44.399 33.197 44.3755 33.3235 44.3761 33.451C44.3735 33.5774 44.3915 33.7034 44.4295 33.824C44.4655 33.9305 44.528 34.0262 44.611 34.1023C44.7077 34.1892 44.8209 34.256 44.9439 34.2988C45.1095 34.3592 45.2802 34.4049 45.4539 34.4351L46.2782 34.5786C46.8872 34.6933 47.3348 34.8846 47.6211 35.1524C47.9074 35.4202 48.0515 35.8094 48.0534 36.3201C48.0548 36.5472 48.0082 36.7721 47.9165 36.98C47.8249 37.1876 47.6869 37.3716 47.513 37.518C47.3157 37.6808 47.088 37.8032 46.843 37.8781C46.5359 37.9713 46.2159 38.0158 45.8949 38.01C45.5777 38.0133 45.2613 37.9786 44.9525 37.9068C44.6885 37.8465 44.4386 37.7365 44.2162 37.5825C44.0074 37.4349 43.8354 37.2415 43.7133 37.0173C43.5799 36.7633 43.5013 36.4843 43.4828 36.1982L44.2364 36.1896ZM21.7219 31.9993H23.6499C24.0147 31.987 24.379 32.0354 24.7277 32.1427C24.9737 32.2209 25.1998 32.351 25.3905 32.5243C25.5461 32.6684 25.6613 32.8503 25.7248 33.0522C25.7848 33.2465 25.8154 33.4486 25.8156 33.6519C25.825 33.9842 25.7439 34.3129 25.5807 34.603C25.3977 34.8857 25.1271 35.1013 24.8098 35.217L26.0461 37.8494H25.1974L24.0851 35.3977C24.0087 35.4093 23.9317 35.416 23.8545 35.4178H23.6326H22.4712V37.8451H21.7219V31.9993ZM23.7234 34.7809C23.9432 34.7867 24.1627 34.7601 24.3747 34.702C24.5249 34.6614 24.6633 34.5857 24.7781 34.481C24.8765 34.3852 24.9471 34.2648 24.9827 34.1324C25.0231 33.9828 25.0425 33.8283 25.0404 33.6734C25.0424 33.5274 25.0205 33.382 24.9755 33.243C24.9309 33.1158 24.8528 33.0028 24.7493 32.9159C24.622 32.8172 24.4744 32.7477 24.317 32.7122C24.0899 32.6602 23.857 32.6366 23.624 32.6419H22.4712V34.7809H23.7234ZM11.0663 31.9993H10.2104L11.8819 37.8537H12.6556L13.9409 32.959L15.2493 37.8537H16.049L17.6787 31.9993H16.8718L15.6527 36.8122L14.3847 32.0236H13.5706L12.294 36.8122L11.0663 31.9993ZM19.8041 31.9993H19.0461V37.8537H19.8041V31.9993ZM31.3487 31.9993H27.5446V37.848H31.3818L31.5057 37.1838H28.3011V35.1668H31.1829V34.494H28.3011V32.6635H31.3487V31.9993ZM33.0533 31.9993H33.8112V37.1809H36.8574L36.7421 37.8537H33.0533V31.9993ZM42.1037 31.9993H38.2983V37.848H42.1326L42.2565 37.1838H39.0562V35.1668H41.938V34.494H39.0562V32.6635H42.1037V31.9993ZM58.2104 31.9993H60.268C60.6595 31.993 61.0493 32.0526 61.4208 32.1757C61.7445 32.2851 62.0377 32.4689 62.2767 32.7123C62.5204 32.9702 62.7044 33.2782 62.8156 33.6146C63.0731 34.4515 63.0691 35.3465 62.804 36.181C62.6878 36.5282 62.4912 36.8433 62.2302 37.101C61.9691 37.3587 61.6509 37.5516 61.3012 37.6644C60.9084 37.7953 60.4963 37.8593 60.0821 37.8537H58.2089L58.2104 31.9993ZM60.1124 37.1967C60.8415 37.1967 61.3737 36.9935 61.7089 36.587C62.0442 36.1805 62.2118 35.6187 62.2118 34.9014C62.2156 34.5809 62.1784 34.2613 62.1009 33.9503C62.0376 33.6922 61.9197 33.4506 61.7551 33.2416C61.5943 33.0452 61.386 32.8927 61.1499 32.7983C60.8685 32.6918 60.569 32.6407 60.268 32.6477H58.9712V37.1967H60.1124ZM68.5115 31.9993H64.7075V37.848H68.5447L68.6686 37.1838H65.464V35.1668H68.3458V34.494H65.464V32.6635H68.5115V31.9993ZM70.6426 36.1896C70.7089 36.5989 70.8722 36.8954 71.1325 37.079C71.3928 37.2627 71.7814 37.354 72.2982 37.353C72.5166 37.3585 72.7345 37.3295 72.9437 37.267C73.0974 37.2208 73.2394 37.1426 73.3602 37.0374C73.4614 36.9459 73.5377 36.8305 73.5821 36.7017C73.6268 36.5711 73.6492 36.4338 73.6483 36.2958C73.6484 36.1835 73.6344 36.0717 73.6066 35.9629C73.5773 35.8559 73.5224 35.7574 73.4466 35.676C73.3526 35.5789 73.2406 35.501 73.1166 35.4465C72.9443 35.3724 72.7632 35.3204 72.5777 35.2916L71.8371 35.1596C71.5737 35.1177 71.3147 35.0519 71.0633 34.9631C70.8544 34.8917 70.6594 34.7849 70.487 34.6475C70.3312 34.5194 70.2099 34.3547 70.1339 34.1683C70.0481 33.9461 70.0075 33.7091 70.0144 33.4711C70.0091 33.2258 70.0672 32.9833 70.1829 32.7668C70.2951 32.5652 70.4512 32.3912 70.6397 32.2575C70.8464 32.1151 71.0781 32.0124 71.3227 31.9548C71.6033 31.8868 71.8913 31.8535 72.1801 31.8558C72.5099 31.8479 72.839 31.8909 73.1556 31.9835C73.389 32.0532 73.6061 32.1688 73.7939 32.3235C73.9521 32.4578 74.0798 32.624 74.1685 32.8112C74.2527 32.9913 74.3175 33.1798 74.3616 33.3736L73.6541 33.517C73.6142 33.365 73.5576 33.2178 73.4855 33.0781C73.419 32.9531 73.3261 32.8439 73.2132 32.7581C73.0913 32.6652 72.9523 32.5969 72.804 32.5573C72.6074 32.5093 72.4054 32.4872 72.2031 32.4913C71.976 32.4861 71.7492 32.5112 71.5288 32.5659C71.3729 32.6041 71.226 32.6724 71.0965 32.7668C70.9914 32.8439 70.91 32.9487 70.8616 33.0694C70.8142 33.1881 70.7902 33.3147 70.791 33.4424C70.7891 33.5688 70.8071 33.6946 70.8443 33.8154C70.8804 33.9219 70.9428 34.0176 71.0259 34.0937C71.1229 34.1809 71.2366 34.2477 71.3602 34.2903C71.5258 34.3507 71.6965 34.3963 71.8703 34.4265L72.693 34.57C73.303 34.6848 73.7507 34.876 74.036 35.1438C74.3213 35.4116 74.4653 35.8008 74.4682 36.3115C74.4701 36.5385 74.424 36.7634 74.3328 36.9714C74.2407 37.1787 74.1028 37.3626 73.9293 37.5094C73.7315 37.6722 73.5033 37.7946 73.2579 37.8695C72.9512 37.9626 72.6317 38.0071 72.3112 38.0015C71.9936 38.0046 71.6767 37.9699 71.3674 37.8982C71.1035 37.8377 70.8536 37.7276 70.6311 37.574C70.4223 37.4263 70.2502 37.2329 70.1282 37.0087C69.9954 36.7545 69.9169 36.4756 69.8976 36.1896H70.6426ZM76.8862 31.9993H76.1283V37.8537H76.8862V31.9993ZM86.0677 31.9993H85.3184L85.3227 37.8537H86.0562V33.2287L89.0692 37.8537H89.7896V31.9993H89.0562V36.6458L86.0677 31.9993Z"
    ></path>
    <path
      fill-rule="evenodd"
      clip-rule="evenodd"
      d="M59.3891 4.69387C61.3214 4.69387 62.9395 5.33082 64.0663 6.53585C65.1672 7.70644 65.7436 9.35045 65.7493 11.29L65.6326 21.3319H62.6067L62.7234 11.8638C62.7234 10.511 62.3646 9.40353 61.6773 8.64608C60.99 7.88863 59.9698 7.48839 58.7234 7.48839C56.1542 7.48839 54.3603 9.36192 54.3603 12.0445L54.2436 21.3304H51.2176L51.3344 0H54.3574V7.01212C55.6153 5.47284 57.3041 4.69387 59.3891 4.69387ZM33.1815 5.02527H29.3112L21.3285 13.3141V4.69245H18.1916V21.329H21.2118L21.3285 17.0497L24.1426 14.2222L29.5057 21.329H33.1542L26.2334 12.1019L33.1815 5.02527ZM7.87748 4.69674C10.1945 4.69674 12.1527 5.57469 13.5403 7.23734C14.8271 8.77519 15.5345 10.9342 15.5288 13.3213C15.5327 13.5761 15.5221 13.8309 15.4971 14.0845L15.4625 14.3857H3.09794C3.304 15.7457 3.88469 16.889 4.79247 17.7096C5.74182 18.5498 6.9719 19.0071 8.24204 18.9921C9.16002 19.0044 10.0687 18.8082 10.8991 18.4183C11.669 18.037 12.3621 17.5181 12.9438 16.8876L13.1714 16.6495L15.1296 18.3953L14.902 18.6478C14.116 19.5557 13.1609 20.3035 12.0893 20.8499C10.9322 21.4165 9.65414 21.6934 8.18152 21.6934C7.10964 21.7038 6.0465 21.5007 5.05467 21.0959C4.06284 20.6911 3.16238 20.0929 2.4063 19.3364C0.860191 17.7842 0.00860596 15.5951 0.00860596 13.1936C0.00860596 10.8969 0.798231 8.76371 2.23339 7.1857C2.94385 6.39703 3.81429 5.76738 4.78721 5.33834C5.76013 4.90929 6.81341 4.69062 7.87748 4.69674ZM11.1441 8.81105C10.3098 7.83269 9.1916 7.33776 7.81841 7.33776C7.21373 7.33554 6.61532 7.45965 6.06183 7.70206C5.50834 7.94447 5.01209 8.29979 4.60515 8.74506C3.79006 9.64564 3.26679 10.7701 3.10371 11.9714H12.4466C12.2853 10.7233 11.8227 9.60867 11.1441 8.81105ZM41.1311 4.81432C43.3617 4.81432 45.1037 5.38384 46.3083 6.5071C47.5317 7.64757 48.1513 9.30736 48.1585 11.4463L48.0403 21.3361H45.1124L45.2291 19.5458C44.7276 20.054 44.1507 20.4827 43.5187 20.8168C42.4438 21.382 41.1066 21.6689 39.7723 21.6689C38.17 21.6689 36.7867 21.2099 35.6628 20.3778C35.0379 19.9282 34.5318 19.3343 34.188 18.6472C33.8442 17.9601 33.6729 17.2003 33.6888 16.4328C33.6888 14.7242 34.3818 13.3212 35.6931 12.373C36.9179 11.485 38.6628 11.0159 40.7363 11.0159C42.25 10.9996 43.759 11.1878 45.2219 11.5754V11.4764C45.2219 10.1939 44.8386 9.2012 44.1023 8.54417C43.366 7.88715 42.2838 7.55433 40.8876 7.55433C38.9769 7.55433 37.536 8.09085 36.2637 8.67185L35.9279 8.8153L34.9942 6.2747L35.2824 6.14416C36.7305 5.48713 38.5591 4.81432 41.1311 4.81432ZM45.2521 15.2479V13.9941C43.8613 13.6064 42.4241 13.4086 40.9798 13.4059C39.6239 13.4059 38.5202 13.6928 37.7766 14.2351C37.4525 14.4766 37.1893 14.79 37.0081 15.1505C36.8268 15.5109 36.7325 15.9085 36.7325 16.3116C36.7325 16.7147 36.8268 17.1122 37.0081 17.4727C37.1893 17.8331 37.4525 18.1466 37.7766 18.3881C38.4308 18.8759 39.3429 19.1441 40.3415 19.1441C41.6801 19.1441 42.9265 18.7424 43.8386 18.0266C44.7507 17.3108 45.2521 16.3238 45.2521 15.2479ZM80.7161 6.5071C79.51 5.38384 77.7694 4.81432 75.5388 4.81432C72.9654 4.81432 71.1383 5.48713 69.6901 6.14416L69.402 6.2747L70.3357 8.8153L70.6714 8.67185C71.9437 8.09085 73.3847 7.55433 75.2953 7.55433C76.6916 7.55433 77.7737 7.88715 78.51 8.54417C79.2463 9.2012 79.6296 10.1939 79.6296 11.4764V11.5754C78.1667 11.1879 76.6578 10.9997 75.144 11.0159C73.0691 11.0159 71.3242 11.485 70.1008 12.373C68.7896 13.3212 68.0965 14.7242 68.0965 16.4328C68.0806 17.2003 68.2519 17.9601 68.5957 18.6472C68.9396 19.3343 69.4456 19.9282 70.0705 20.3778C71.193 21.2099 72.5778 21.6689 74.1801 21.6689C75.5144 21.6689 76.8501 21.382 77.9265 20.8168C78.5589 20.4827 79.1362 20.054 79.6383 19.5458L79.5216 21.3361H82.4495V11.4405C82.4409 9.30736 81.938 7.64757 80.7161 6.5071ZM79.6599 13.9941V15.2479C79.6599 16.3238 79.157 17.3108 78.2449 18.0266C77.3328 18.7424 76.0893 19.1441 74.7492 19.1441C73.7492 19.1441 72.8386 18.8759 72.1829 18.3881C71.8595 18.1457 71.5973 17.8317 71.417 17.4709C71.2366 17.1101 71.1432 16.7124 71.144 16.3094C71.1449 15.9064 71.24 15.5092 71.4218 15.1491C71.6036 14.7891 71.8672 14.4761 72.1916 14.2351C72.9265 13.6928 74.0316 13.4059 75.3861 13.4059C76.8309 13.4086 78.2686 13.6065 79.6599 13.9941ZM97.0029 14.311V5.02513H99.9856V21.3303H96.9971V19.332C96.3991 20.0846 95.6324 20.6873 94.7584 21.0921C93.8844 21.4969 92.9275 21.6925 91.964 21.6631C90.0317 21.6631 88.4136 21.0262 87.2868 19.8197C86.1888 18.6534 85.6124 17.0066 85.6124 15.067V5.02513H88.6384V14.4932C88.6384 15.846 88.9972 16.9549 89.6845 17.7109C90.3718 18.4669 91.3934 18.8672 92.6384 18.8672C93.2144 18.8779 93.7867 18.773 94.3212 18.5588C94.8556 18.3447 95.3413 18.0256 95.7493 17.6205C96.5706 16.7871 97.0029 15.6423 97.0029 14.311Z"
    ></path>
    <path d="M0 25.5122H9.36455V27.8792H0V25.5122Z" fill="#F04C47"></path>
    <path
      d="M9.09076 25.5122H18.4726V27.8792H9.09076V25.5122Z"
      fill="#F26748"
    ></path>
    <path
      d="M18.1816 25.5122H27.5577V27.8792H18.1816V25.5122Z"
      fill="#F68B4A"
    ></path>
    <path
      d="M27.2723 25.5122H36.6398V27.8792H27.2723V25.5122Z"
      fill="#FBAF42"
    ></path>
    <path
      d="M36.3631 25.5122H45.7507V27.8792H36.3631V25.5122Z"
      fill="#FFD438"
    ></path>
    <path
      d="M45.4539 25.5122H54.8199V27.8792H45.4539V25.5122Z"
      fill="#F4EC4B"
    ></path>
    <path
      d="M54.5461 25.5122H63.9136V27.8792H54.5461V25.5122Z"
      fill="#DEE33C"
    ></path>
    <path
      d="M63.6369 25.5122H72.9942V27.8792H63.6369V25.5122Z"
      fill="#C2D830"
    ></path>
    <path
      d="M72.7277 25.5122H82.183V27.8792H72.7277V25.5122Z"
      fill="#A9CF38"
    ></path>
    <path
      d="M81.8184 25.5122H91.2377V27.8792H81.8184V25.5122Z"
      fill="#92C83E"
    ></path>
    <path
      d="M90.9092 25.5122H100V27.8792H90.9092V25.5122Z"
      fill="#85C441"
    ></path>
  </g>
  <defs>
    <clipPath id="clip0">
      <path d="M0 0H100V38H0V0Z"></path>
    </clipPath>
  </defs>
</svg>
