<?xml version="1.0" encoding="utf-8"?>
<!-- Generator: Adobe Illustrator 27.9.4, SVG Export Plug-In . SVG Version: 9.03 Build 54784)  -->
<svg version="1.1" id="Layer_1" xmlns="http://www.w3.org/2000/svg" xmlns:xlink="http://www.w3.org/1999/xlink" x="0px" y="0px"
	 viewBox="0 0 192.8 192.8" style="enable-background:new 0 0 192.8 192.8;" xml:space="preserve">
<g>
	<path d="M20.4,75.6c-0.2,0.5-0.5,2.2-0.6,2.7H5.4l-0.7,2.9h14.4c-0.2,0.5-0.5,2.4-0.6,2.9H4.1c0,0-1.1,5.3-1.2,5.8h-3
		c0.2-0.8,2.9-13.8,3-14.3C2.9,75.6,20.4,75.6,20.4,75.6z M25.2,75.6C25.1,76.3,22.8,87,22.8,87h12.1c-0.2,0.5-0.5,2.4-0.6,2.9H19.2
		c0.2-0.8,2.9-13.8,3-14.3C22.2,75.6,25.2,75.6,25.2,75.6z M75.1,89.8h-5.3c-0.2-0.2-8-6.1-8-6.1s-1.2,5.5-1.3,6.1h-2.9
		c0.1-0.8,2.9-13.8,3-14.3h2.9c-0.1,0.7-1.2,5.9-1.2,5.9s10.7-5.8,10.8-5.9H78c-1.9,1-12.8,7-12.8,7S73.7,88.8,75.1,89.8z
		 M81.4,78.3l-0.7,3.1H96c-0.1,0.5-0.5,2.2-0.5,2.7H80.2l-0.7,3.1h15.3c-0.1,0.5-0.5,2.2-0.6,2.7H76.1c0.2-0.8,2.9-13.8,3-14.3h18.1
		c-0.1,0.5-0.4,2.2-0.5,2.7C96.7,78.3,81.4,78.3,81.4,78.3z M58.7,75.6c-0.2,0.7-2.4,11-2.4,11c0,0.2-0.5,2.9-3.3,3.3H38.1
		c-0.8-0.1-1.3-0.4-1.6-1c-0.3-0.3-0.3-0.9-0.3-1.3c0-0.4,0.1-0.9,0.1-0.9s2.3-10.7,2.4-11.2h3c-0.2,0.7-2.5,11.6-2.5,11.6h14
		c0,0,2.4-11.2,2.5-11.6H58.7z"/>
	<path d="M66.8,109.6h2.7l1.5-7.3c0.4-1.8,2-5.4,5.4-5.4c1.6,0,2.6,1.1,2.6,2.6c0,0.3-0.1,0.9-0.1,1.4l-1.8,8.7h2.7l1.6-7.7
		c0.2-0.8,0.3-1.8,0.3-2.6c0-3.1-2-4.6-4.8-4.6c-2.5,0-4.1,1.3-4.9,2.6h-0.1l0.5-2.2h-2.5c-0.2,0.9-0.3,1.6-0.4,2.2
		C69.3,97.3,66.8,109.6,66.8,109.6z M85.8,101c0.6-2.2,2.2-4.1,4.4-4.1c2.1,0,3.1,1.2,3.1,2.9c0,0.3-0.1,0.7-0.1,1.1
		C93.3,101,85.8,101,85.8,101z M94,106.9c-1.3,0.6-2.8,1-4.1,1c-2.6,0-4.4-1-4.4-4c0-0.3,0-0.6,0.1-0.9h10.2
		c0.1-0.9,0.3-1.7,0.3-2.7c0-3.5-2-5.5-5.4-5.5c-5.2,0-8,4.6-8,8.6c0,5.1,3.1,6.6,6.7,6.6c1.5,0,2.9-0.3,4.3-0.6
		C93.6,109.4,94,106.9,94,106.9z M96.6,97.3h3.2l-1.2,6.1c-0.2,0.8-0.5,2.5-0.5,3.4c0,1.6,0.9,3.3,3.5,3.3c0.8,0,2-0.1,2.6-0.3
		l0.4-2.2c-0.5,0.3-1.3,0.4-1.9,0.4c-1.4,0-1.9-0.6-1.9-1.6c0-0.4,0.3-2.1,0.4-2.7l1.3-6.2h4l0.4-2.2h-4l0.7-3.5l-2.6,0.1l-0.8,3.4
		H97L96.6,97.3L96.6,97.3z M109.9,109.6h3.2l6.2-11.7h0.1l1.1,11.7h3.1l7.9-14.5h-2.9l-6,11.7h-0.1l-1-11.7h-3.2l-6.2,11.7l-1-11.7
		h-2.7L109.9,109.6z M130.1,103.5c0,4.3,2.6,6.5,6.6,6.5c5.2,0,8.1-4,8.1-8.9c0-4-2.6-6.3-6.5-6.3C133,94.8,130.1,98.7,130.1,103.5
		L130.1,103.5z M132.9,103.7c0-3,1.8-6.7,5.4-6.7c2.4,0,3.7,2,3.7,4.1c0,3.3-2.3,6.7-5.3,6.7C134.1,107.8,132.9,106,132.9,103.7z
		 M144.9,109.6h2.7l1.5-7.2c0.3-1.8,2-5.4,5.3-5.4c0.3,0,0.6,0.1,1.1,0.3L156,95c-0.5-0.2-1-0.3-1.2-0.3c-2.5,0-4.1,1.3-4.9,2.6
		h-0.1l0.4-2.2h-2.4c-0.2,0.9-0.3,1.6-0.4,2.2L144.9,109.6L144.9,109.6z M154.7,109.6h2.6l1.6-7.5l5.2,7.5h3.5l-6-8.1l8.3-6.4h-4
		l-6.7,5.7l1.8-9.2h-2.6L154.7,109.6L154.7,109.6z M180.2,95.6c-1.2-0.4-2.5-0.8-3.8-0.8c-2.3,0-5.4,1.2-5.4,4.2
		c0,3.7,4.9,4.1,4.9,6.6c0,1.6-1.6,2.2-3,2.2c-1.1,0-2.2-0.4-3.3-0.9l-0.5,2.3c1,0.3,1.9,0.7,4.2,0.7c2.2,0,5.4-1.2,5.4-4.7
		c0-4.1-4.9-4.1-4.9-6.7c0-1.5,1.6-1.7,2.7-1.7c1,0,2.2,0.3,2.9,0.7L180.2,95.6L180.2,95.6z"/>
	<path d="M104.6,115.4c0,1-0.9,1.8-1.8,1.8c-1,0-1.8-0.8-1.8-1.8c0-1,0.8-1.8,1.8-1.8C103.7,113.5,104.6,114.3,104.6,115.4z
		 M94.9,115.4c0,1-0.8,1.8-1.8,1.8c-1,0-1.8-0.8-1.8-1.8c0-1,0.9-1.8,1.8-1.8C94.1,113.5,94.9,114.3,94.9,115.4z M83.1,115.4
		c0,1-0.8,1.8-1.8,1.8c-1,0-1.8-0.8-1.8-1.8c0-1,0.9-1.8,1.8-1.8C82.3,113.5,83.1,114.3,83.1,115.4z M68.6,115.4c-0.1,1-1,1.8-2,1.7
		c-1-0.1-1.7-1-1.6-2c0.1-1,1-1.7,1.9-1.6C67.9,113.6,68.6,114.5,68.6,115.4z"/>
	<path d="M50,115.4c0,1-0.8,1.8-1.8,1.8c-1,0-1.8-0.8-1.8-1.8c0-1,0.9-1.8,1.8-1.8C49.3,113.5,50,114.3,50,115.4z M185.9,105.4h-1.6
		l-1,4.6h-0.7l0.9-4.6h-1.6l0.2-0.6h4L185.9,105.4z M187.3,104.8h1.1l0.7,4.2l2.5-4.2h1.2l-1,5.2H191l0.9-4.5l-2.7,4.5h-0.7
		l-0.8-4.5l-1,4.5h-0.7L187.3,104.8z"/>
</g>
</svg>
