<?xml version="1.0" encoding="utf-8"?>
<!-- Generator: Adobe Illustrator 27.9.4, SVG Export Plug-In . SVG Version: 9.03 Build 54784)  -->
<svg version="1.1" id="Layer_1" xmlns="http://www.w3.org/2000/svg" xmlns:xlink="http://www.w3.org/1999/xlink" x="0px" y="0px"
	 viewBox="0 0 652 652" style="enable-background:new 0 0 652 652;" xml:space="preserve">
<g>
	<g>
		<path d="M189.7,388.6l-3.9,3.2l-4.4-6.1l-7.6-10.7l-4.4-6.1c1-1.1,2.4-2.2,3.7-3.2l0.7,0.8l7.6,8.6l8.3,9.2l2.2,2.5L189.7,388.6z
			 M173.8,399.5l-4,2.1l-1-2.5l-8.3-20.2l-0.9-2.3l-0.2-0.5v-0.9c0.1-0.1,0.1-0.1,0.2-0.1c0.3-0.1,0.5-0.3,0.9-0.5
			c1.1-0.5,2.2-1.2,3.2-1.7l5.1,10l5,9.7l2.8,5.5L173.8,399.5z M159.6,405.7l-4.5,1.3l-2.5,0.8l-4.7-28.5c1.3-0.5,2.9-0.8,4.8-1.3
			l2.3,9l4.5,17.7l0.2,0.9L159.6,405.7z M138.9,410.2c-1.3,0.1-2.6,0.2-3.9,0.3l1.5-29.8h2.3h2.3l1.3,28.9
			C141.2,409.9,140.1,410,138.9,410.2 M124.6,410.4v0.2c-1.7-0.1-3.6-0.3-5.3-0.5c-0.4-0.1-0.9-0.1-1.3-0.1c-0.1,0-0.3-0.1-0.4-0.1
			l0.4-1.8l1.3-4.9l5.3-20.3l0.5-2.1h3.9c0.3,0.2,0.3,0.5,0.3,0.8L124.6,410.4z M111,398.2l-3.4,9c-1.3-0.3-2.4-0.8-3.5-1.1
			c-1.2-0.3-2.2-0.8-3.4-1.1l3.4-6.9l7-14.1l3.4-7l3.5,1.1l0.5,0.2l-0.5,1.3L111,398.2z M99.5,388.6l-7.6,12
			c-0.8-0.3-1.5-0.8-2.4-1.2c-1.2-0.7-2.4-1.3-3.5-2l3.5-4.7l10-13.2l4.6-6.2l0.9-1.1c1.1,0.5,2.4,1.3,3.5,2.2l-4.4,6.9L99.5,388.6z
			 M80.3,388.9l-1.7,1.8c-1.6-1.3-3.2-2.9-4.9-4.6l6.6-6.1l9.2-8.6l7.2-6.6c1,0.8,1.8,1.5,2.7,2.5c0.1,0.1,0.3,0.3,0.4,0.4l-0.4,0.4
			l-10,10.7L80.3,388.9z M72.5,374.8l-4.6,3.4c-1.4-1.6-2.7-3.7-3.7-5.7l8.3-5l7.8-4.9l4.6-2.8l4.6-2.8l1.1-0.7
			c1.1,0.3,1.5,2.2,2.5,3.3l-0.2,0.2l-3.3,2.3l-9.2,7L72.5,374.8z M61.5,362.8l-1.3,0.5c-0.3-0.9-0.5-1.8-1.1-2.9
			c0.2-0.1,9.7-4.7,13.4-6.9c2-1.2,4-2.6,6-4.4c0.5-0.4,1.2-0.8,1.8-1.1c2-0.9,4.4-1.3,6.4-2c0.5,1.3,1.1,2.9,1.4,4.4l-7.8,3.6
			l-7.8,3.7l-4.4,2.1L61.5,362.8z M33.7,370.8c-0.5-0.3-1.3-0.5-2.2-0.9l29.9-14.1h2.5L33.7,370.8z M24.7,366.1l-1.2,0.5
			c-0.9-0.5-2-1.5-2.5-2.2l3.6-1.6l6.6-2.9l16.6-7.4l0.4-0.1l3.5-1.5l0.4-0.2c1,0.8,1.8,1.3,2.3,2l-2.7,1.3l-3.5,1.5l-0.4,0.2
			l-9.6,4.4L24.7,366.1z M13.4,358.9c-0.5-1.1-1.3-2.4-1.8-3.5l13.2-4.7l22.4-7.8c0.3,0.3,0.5,0.7,0.9,1.1c0.1,0.2,0.3,0.4,0.4,0.7
			c0.1,0.1,0.2,0.3,0.3,0.5l-0.3,0.1l-0.4,0.1l-23.3,9L13.4,358.9z M6.5,346.3c-0.7-1.1-1.1-2.2-1.4-3.3l19.6-4.1l19.1-4.1
			c0.3,0.8,0.5,1.6,0.9,2.5l-19.9,4.7L6.5,346.3z M1.6,333.5v-4.8l23.1-0.9l17.5-0.7c-0.1,0.9-0.1,1.8,0,2.7l-17.5,1.5L1.6,333.5z
			 M1.6,313.4l23.1,2l17.3,1.4c0.1,2.5-0.1,2.6,0,2.9L24.6,319l-23.1-1V313.4z M6.5,300.3l18.2,4.6l19.9,5c-0.3,0.5-0.5,1.4-1.1,2.2
			l-18.9-4.1l-19.8-4.4C5.4,302.3,5.9,301.4,6.5,300.3 M13.2,288l11.5,4.6l23.3,9l0.4,0.1h0.1c0,0.1-0.1,0.1-0.1,0.2
			c-0.1,0.2-0.3,0.5-0.4,0.9c-0.1,0.3-0.3,0.8-0.5,1.2l-22.7-7.8l-13.4-4.7C11.9,290.3,12.6,289.1,13.2,288 M23.4,280.5l1.3,0.7
			L48,291.6l0.4,0.2l3.5,1.5l3.6,1.6c-0.8,0.7-2,1.4-2.6,1.7l-1-0.4l-3.5-1.5l-0.4-0.1l-23.3-10.2l-3.9-1.7
			C21.6,281.8,22.7,280.9,23.4,280.5 M33.7,276.1l14.2,7.2l0.4,0.2l3.5,1.7l9.6,4.8l2.7,1.4c-0.5,0.1-1.3,0.1-2,0.3l-0.7-0.3
			l-9.6-4.6l-3.5-1.7l-0.4-0.2l-16.2-7.8C32.4,276.7,33.2,276.5,33.7,276.1 M72.5,299.3c3.8,3.3,6.4,8.6,7.8,12.9
			c0.7,2.2,1.1,4,1.1,5.3c0.3,4.6,0.3,7.2,0,11.5c-0.1,1.3-0.4,3.3-1.1,5.4c-1.4,4.5-4.1,10-7.8,13.4c-2,1.7-4.4,2.9-7,2.9
			c-0.4,0-2.3-0.1-3.9-0.7c-0.5-0.1-1.1-0.3-1.5-0.5c-3.4-1.6-6.4-5.7-8-9c-0.2-0.3-0.3-0.7-0.5-1c-1.3-3.2-2.6-9.2-2.9-13.8
			c-0.1-0.8-0.1-1.7-0.1-2.5c0-0.1,0.1-0.7,0.1-1.3c0.2-2.3,0.8-7.1,1.4-10c0.3-1.7,1.1-3.7,2.1-5.7c1.5-3,3.9-6.2,7-8.3
			c0.7-0.5,1.5-0.9,2.6-1.3c1.3-0.4,2.8-0.7,3.7-0.7C68,296.5,70.4,297.6,72.5,299.3 M68.2,288.4l4.4,2.2l7.8,4l9.2,4.8l3.7,1.8
			c-0.5,1.4-1.3,2.9-2.4,4.6c-0.4-0.1-0.9-0.3-1.3-0.4c-2.5-1-5.2-2-7.7-3.3c-0.5-0.3-0.8-1.3-1.2-1.7c-0.1-0.1-0.2-0.2-0.3-0.3
			c-1.7-2.3-3.9-4.4-6.2-6c-0.5-0.3-1.1-0.7-1.6-1c-1.5-0.9-3.4-1.6-5.1-2.5C67.3,290.1,67.8,289.3,68.2,288.4 M74.6,279.5l5-6
			l0.8,0.7l9.2,8.2l10,8.7l1,0.9c-0.3,0.5-0.7,1.1-1,1.5c-0.5,0.9-1.3,1.6-2,2.5l-8-5.7l-9.2-6.6L74.6,279.5z M89.6,264.1l3.9-3
			l6.1,8.5l4.6,6.4l5.5,7.8c-1.3,1.1-2.6,1.8-4,2.9l-1.5-1.7l-4.6-5.3l-10-11.4l-2.2-2.5L89.6,264.1z M104.2,253.9
			c1.5-0.9,3.3-1.7,5-2.5l2,4.6l7,16.5l1.3,3.2l0.5,1.3c-0.1,0.1-0.3,0.3-0.5,0.4c-0.4,0.3-0.9,0.7-1.3,0.9
			c-0.7,0.4-1.5,0.9-2.2,1.3l-4.8-8.7l-7-12.7l-1.7-3.4C102.8,254.6,103.5,254.3,104.2,253.9 M119.3,246.8l5.3-1.7l1.2-0.4l4.7,27.1
			v1.6c-1.3,0.3-2.9,0.8-4.2,1.3l-1.6-6.1l-5.3-19.6l-0.5-2L119.3,246.8z M138.9,242c1.3-0.1,2.8-0.3,4.8-0.4l-1.5,29.8
			c-1-0.1-2.1-0.1-3.3-0.1c-0.3,0-0.8,0.1-1.3,0.1l-1.3-29C137,242.2,137.9,242,138.9,242 M154,241.2c0.4,0.1,0.8,0.1,1.2,0.1
			c1.5,0.1,2.9,0.3,4.5,0.5c0.3,0,0.5,0.1,0.9,0.1c0.2,0.1,0.4,0.1,0.7,0.1l-0.7,2.4l-0.9,3.5l-4.5,16.8l-1.7,6.4
			c-2.7-0.1-3.4-0.1-4.4,0L154,241.2z M168.8,250.2l2.5-6.2l2.5,0.9l3.9,1.3l-3.9,7.9l-5,10.4l-4.6,9.5c-1.2-0.4-2.5-0.9-3.6-1.4
			c-0.2-0.1-0.4-0.1-0.5-0.2l0.5-1.5L168.8,250.2z M181.4,258.8l5.3-8.4c1,0.5,2,1.1,2.9,1.6c1,0.5,2.1,1.2,3.2,1.7l-3.2,4.4
			l-8.3,11l-7.5,10c-0.1,0-0.1,0-0.1-0.1c-1.3-0.8-2.5-1.5-3.9-2.3l3.9-6.1L181.4,258.8z M200.6,259.9l0.2,0.2l4.6,4.6l-4.6,4
			l-11.3,10.4l-7.4,6.9l-0.8-0.8l-2.2-2.2l2.2-2.4l8.3-8.9L200.6,259.9z M211.4,272.4c1.3,1.8,2.7,3.9,3.9,6.1l-14.5,8.8l-11.3,7
			l-0.9,0.5c-0.5-0.9-1.6-2.1-2.4-3.5l3.3-2.5l11.3-8.5L211.4,272.4z M200.9,359.1c-1.1-0.5-2.1-1-3.2-1.4c-0.5,0.5-0.9,1.3-1.3,2.2
			c-1.2,2.6-2.3,5.8-5.4,4.6c2.9,2.4,6.7,5.1,9.9,7.8c1.1,1,2.2,2,2.9,2.8c-1.1,1.2-2.1,2.4-2.9,3.6c-0.7,0.9-1.2,1.6-1.7,2.4
			l-9.5-8.9l-7.8-7.5h-0.3h-7.6h-2.6c-0.9,0.9-1.7,1.6-2.4,2.4c-0.8,0.8-1.5,1.5-2.2,2c-1.7,1.2-3.8,2.3-6.1,3.4
			c-0.3,0.1-0.5,0.3-0.9,0.4c-1.5,0.7-2.9,1.3-4.5,2c-3.2,1.3-6.3,2.3-9.4,3.2c-1.7,0.4-4.6,0.9-7,1.1c-2.1,0.1-3.9,0.3-4.1,0.3
			c-0.5,0-6.4-0.3-10-1c-0.3-0.1-0.5-0.1-0.9-0.1c-1.5-0.3-3-0.8-4.6-1.3c-0.4-0.1-0.9-0.2-1.3-0.3c-1.5-0.5-3-1.1-4.5-1.5
			c-0.8-0.3-1.5-0.7-2.5-1.1c-2.3-1.1-4.6-2.7-7-4.7c-1.6-1.3-3.2-2.7-4.6-4.2c-1.6-1.6-3-3.4-4.1-5.1c-0.7-1.1-1.3-2.1-1.6-3
			c-0.7-1.3-1.7-2.5-2.5-3.9c-0.5-1.3-1.2-2.7-1.7-4.1c-0.7-1.7-1.2-3.6-1.6-5.3c-0.7-2.7-0.4-5.5-0.7-8.5c0-0.8-0.7-1.4-0.7-2
			c0-0.7,0.7-8.8,1.6-13.2c0.3-1.5,0.9-3.2,1.3-4.8c0.7-2.1,1.5-4.1,2.2-6.2c1-2.5,2.8-4.9,4.2-7.2c0.7-1,0.9-2.2,1.4-2.7
			c0.7-0.8,1.4-1.6,2.1-2.4c1.5-1.7,2.9-3.6,4.6-5.3c0.7-0.7,1.3-1.3,2-2c1.5-1.5,3.4-2.6,5-3.8c0.3-0.2,0.7-0.4,1-0.8
			c1.1-0.9,2-1.8,3-2.4c1-0.5,2-1.1,2.9-1.6c0.4-0.2,0.9-0.4,1.3-0.7c1.7-1,3.5-2,5.3-2.7c0.1-0.1,0.3-0.1,0.5-0.1
			c3.4-1.3,7.3-2.5,11-3.4c0.8-0.1,1.7-0.3,2.7-0.4c3.4-0.3,7.5-0.3,8-0.3c0.7,0,4.9,0.2,8.4,0.7c0.8,0.1,1.5,0.3,2.2,0.4
			c0.8,0.1,1.5,0.3,2.2,0.5c0.3,0.1,0.5,0.1,0.9,0.2c2.4,0.7,4.8,1.5,6.9,2.8c0.4,0.2,1,0.5,1.4,0.9c1.5,1,3.3,2,5,3.2
			c2.6,1.7,5.3,3.9,7.6,6.4c0.8,0.9,1.6,1.7,2.4,2.8c2.3,2.9,4.1,6.2,5.9,9.5c0.1,0.3,0.3,0.8,0.5,1.1c1.5,3.2,2.5,7,4,10.4
			c3.8,0.9,5.1-3.2,6.7-6.5c0.5-1.2,1.2-2.3,2-3.2l-2,0.9l-7.2,2.7c-0.4-1.2-1-2.7-1.5-3.9l8.6-4l19.7-9.5c1,1.7,1.5,3.5,2.3,5.3h2
			c-0.3-1.3-2.7-8.2-3.7-8.2c-0.7,0-3.3,2-4.8,2.1l1.3-8.4c-0.5-1.3-1.6-2.9-2.5-4.5c-0.3-0.7-2.4-4.5-3.4-4.5
			c-0.7,0-2.5,1.7-3.5,2.3v-4.4c-0.3-1.3,0.1-2.7-0.5-3.6c-1.5-2.3-5.5-6-7-6.7c-0.1-0.1-0.3-0.1-0.3-0.1c-0.7,0-2.3,2.1-3.2,2.9
			c-0.7-2.4-0.5-5.4-2.1-7.4c-1.2-1.5-3.7-2.9-5.7-4c-1.5-0.8-2.7-1.2-2.9-1.2c-1.1,0-2.4,2.9-2.9,3.6c-0.9-1.5-1.4-3.4-2.4-4.9
			c-0.4-0.8-1.1-1.5-1.7-2c-1.4-1.1-3.8-1.8-5.9-2.3c-1.5-0.3-2.7-0.7-2.9-0.7c-0.9,0-1.5,1.3-2.1,2.4c-0.3,0.9-0.5,1.5-0.5,1.7
			c-1.7-1.7-2.9-4.7-5.3-5.5c-0.8-0.3-1.5-0.4-2.4-0.7c-0.3-0.1-0.5-0.1-0.9-0.1c-1.5-0.1-2.9-0.1-4.5-0.2c-0.8,0-1.6-0.1-2.5-0.1
			c-0.5,1.6-0.8,3.2-1.3,4.7c-2.3-1.5-6.3-4.7-7-4.7c-0.4,0-3,0.4-5.7,0.7c-1.5,0.1-2.9,0.3-4.1,0.4c-0.3,0.2-0.5,0.5-0.5,0.5
			c-0.1,1.5-0.1,3.2,0,4.4l-7.3-3.7c-0.4,0.2-1.2,0.4-2.1,0.8c-1.6,0.5-3.7,1.2-5.3,1.8c-0.5,0.1-0.9,0.3-1.3,0.5
			c-0.9,0.4-1.5,0.8-1.5,1.1c0,0.5,0.8,2.5,1.1,3.4c-0.2,0.2-1.2,0.1-1.2,0.1c-1.4-0.3-3.8-0.7-5.2-0.9c-0.5,0-1-0.1-1.2-0.1
			c-0.7,0-0.5,0-0.9,0.1c-1.5,1-3.3,1.8-4.9,2.7c-2.4,1.2-4.4,2.2-4.4,2.9c0,0.7,1.1,2.5,1.7,3.4c-0.5,0.1-1.1,0.1-2,0.1
			c-0.8,0-1.7,0.1-3.3,0.3c-1.1,0.1-2.3-0.1-3.2,0.3c-1,0.5-2.3,1.5-3.6,2.5c-2.5,2-4.8,4.1-4.8,4.6c0,0.5,1.7,2.2,2.5,3.2
			c-2.3,0.8-4.8,0.7-7,1.5c-0.5,0.1-1,0.4-1.4,0.8c-2.3,1.6-5.2,5.5-6.4,7.6c-0.3,0.5-0.5,1-0.5,1.1c0,0.2,0.2,0.5,0.5,0.9
			c0.7,0.7,1.8,1.6,2.6,2.1c-0.8,0.5-1.7,1-2.6,1.3c-2.9,1.1-6.1,1.7-7.2,5.5l-3.8-2l-9.6-4.8l-3.5-1.7l-0.4-0.2l-14.4-7.1
			c-1.7,0.8-3.8,1.3-5.1,2.2c-1.3,0.8-1.5,2.5-2.3,3.4c-0.3-0.2-1-0.5-1.5-0.8c-0.5-0.3-1-0.4-1.3-0.4c-0.7,0-4.4,2.4-5.5,4.1
			c-1,1.3-0.9,3.2-1.3,4.6h-0.7c-1-0.5-2.3-1.3-2.9-1.3c-1.3,0-3.7,5.4-3.8,5.8c-0.3,2.3-0.8,4.7-1.5,6.9c-0.7,0-1.5-0.3-2-0.2
			c-0.9,0.9-2.9,4.5-2.9,6.6c0,0.7,0.5,5,0.5,5.8c0,0.5,0.1,0.9-0.1,1.1c-1-0.2-2.3-0.2-3.4,0.1v7.9c0,0.5,1.3,2.9,1.3,3.6
			c0,0.7-1.3,3.2-1.3,3.7v8c0.5,0.5,1.1,0.5,1.7,0.5s1.3-0.3,1.8-0.1c-0.3,3-0.5,5.5-0.5,6.2c0,1.7,2.2,5.5,2.8,7
			c0.9,0.1,1.6-0.1,2.1-0.2c0.8,2.3,1.2,4.6,1.5,7c0,0.2,1.4,2.9,2.6,4.6l0,0c0.5,0.7,1.1,1.1,1.4,1.1c0.7,0,2.4-0.8,3.4-1
			c0.4,1.4,0.9,2.9,1.3,4.5c0.2,0.8,4.6,4.2,5.8,4.2c0.3,0,0.8-0.1,1.2-0.3c0.7-0.2,1.5-0.7,2.1-1c0.1,3.6,4.6,4.6,7,5.5l14.2-7
			l0.4-0.2l3.5-1.7l5.2-2.5c0.4,1.2,0.4,2.8,1.3,3.8c0.9,1,2,1.6,3.2,2.3c1.3,0.8,2.7,1.3,3.7,2.1c-0.3,0.1-3.6,1.5-3.6,2.5
			c0,0.7,2.6,6.6,5.1,8.7c1.5,1.3,3.7,1.5,5.7,1.8c0.7,0.1,1.3,0.2,1.7,0.3c-0.4,0.4-1.2,1.1-1.7,1.6c-0.7,0.5-1.3,1.3-1.3,1.5
			c0,0.2,0.5,1,1.3,1.8c1.4,1.7,3.7,4.1,5.5,5.2c0.7,0.4,1.5,0.3,2.4,0.3h0.5c3.3,0.3,4.2,0.2,5.2,0.4c-0.8,0.9-2.5,2.7-2.5,3.4
			s3.4,2.7,6,4.2c1.5,0.8,2.7,1.3,2.9,1.3c0.7,0,6.1-1,7-1.1h0.1c0.7,0,0.4,0.2,0.4,0.2c-0.1,0.3-0.3,0.5-0.5,1c-0.5,0.9-1,2-1,2.3
			c0,0.7,0.3,0.9,0.5,1.1c0.1,0.1,0.3,0.1,0.4,0.2c1.3,0.5,3,1.1,4.6,1.7c2.1,0.8,3.9,1.3,4.1,1.3c0.3,0,1.4-0.3,2.7-0.9
			c1.5-0.7,3.4-1.3,4.6-1.7c0.5,1.4-0.5,2.2-0.5,3.2c0,0.7,0.3,0.9,0.7,1.1c0.7,0.1,1.4,0.1,2.2,0.2c0.4,0.1,0.9,0.1,1.3,0.1
			c2.1,0.3,4.4,0.5,5.3,0.7c0.3,0.1,0.5,0.1,0.7,0.1c1.8,0,6.6-3.7,7.6-4.1c0.7,2.4-1.1,4.1,1.5,4.1c0.3,0,2.3,0,4.4-0.2
			c1.8-0.1,3.7-0.4,5.1-1c2.5-1,4.4-3.8,6.3-5.5c0.3,1-0.1,4.1,2,4.1c0.3,0,1.5-0.2,3-0.7c1.3-0.3,3-0.9,4.5-1.3
			c0.3-0.1,0.5-0.3,0.9-0.4c0.4-0.1,0.8-0.4,1.1-0.7c2.5-1.6,3.9-4.6,5.3-6.4c0.3,0.4,0.7,2.6,1.8,3.2c0.1,0.1,0.3,0.1,0.7,0.1
			s2.3-0.7,4.4-1.7c1.7-0.9,3.5-2.1,4.6-3c1.4-1.5,2.3-3.6,3-5.3c0.4-0.9,0.8-1.7,1.3-2.4c0.7,1,2.1,3,2.7,3c0.3,0,2.2-1.2,4.2-2.7
			c1.7-1.3,3.6-2.9,4.6-4.4c1.4-2,1.2-4.7,1.5-6.9c1,0.9,2.8,2.7,3.5,2.7c0.2,0,0.8-0.5,1.6-1.3c2-2,4.9-5.8,5.5-7.2
			c0.3-1.2,0.1-2.6,0.3-3.9v-8.8c-1.4-0.8-2.9-1.5-4.4-2.3C201.9,359.6,201.4,359.3,200.9,359.1"/>
		<path d="M119.7,326.3c0.8-4.4,2.5-8.7,4.9-12.6c3.4-5.3,8.3-9.7,14.1-11.2c1.5-0.4,3.2-0.5,4.9-0.5c5.1,0.1,9,2.2,11.4,5.8
			c1.3,1.8,2.1,4.1,2.6,6.7l1.8-0.8l0.9-0.3l8.3-3.3l5-2l4-1.5c-1-3.5-2.3-6.6-4-9.2c-1.4-2.2-3-4.1-5-5.8c-2.4-2-5.1-3.6-8.3-4.8
			c-0.3-0.1-0.5-0.1-0.9-0.3c-1.4-0.4-2.9-0.8-4.5-1.1c-2.4-0.4-4.8-0.7-7.5-0.7c-2.9,0-6,0.2-8.8,0.8c-5,0.8-9.8,2.4-14.1,4.8
			c-1.8,1-3.6,2.1-5.3,3.4c-0.4,0.3-0.9,0.7-1.3,0.9c-2.5,2-4.8,4.1-7,6.6c-2.7,3.2-5,6.6-7,10.4c-2.1,4.2-3.6,8.9-4.6,13.9
			c-0.1,0.2-0.1,0.5-0.1,0.8c-1.2,6.4-1,12.3,0.1,17.5c0.9,3.9,2.5,7.5,4.6,10.6c1.5,2.2,3.3,4,5.3,5.7c0.5,0.4,1.1,0.9,1.6,1.2
			c2.1,1.5,4.4,2.7,7,3.6c0.4,0.1,0.9,0.3,1.3,0.4c1.7,0.5,3.5,1,5.3,1.3c2.4,0.4,4.9,0.7,7.5,0.7c2.3,0,4.6-0.1,6.6-0.4
			c5.8-0.8,11.2-2.6,16.3-5.7c0.7-0.4,1.3-0.9,2-1.3l0,0c0.9-0.5,1.6-1.1,2.5-1.7c0.3-0.2,0.5-0.4,0.9-0.8c2-1.5,3.7-3.3,5.5-5.2
			c1-1.2,1.8-2.3,2.7-3.5c2.1-2.8,3.6-5.7,5-8.6c2.7-5.8,4.1-11.9,5.4-18.6h-5.4h-5l-8.3-0.1h-0.9h-4.5l-14.9-0.1l-1.5,8.2l-1.3,7.7
			h1.3l14.6,0.1c-2,7.6-7.6,12-14.6,13.1c-1.1,0.1-2.4,0.2-3.6,0.2c-4.6,0-8-1.5-10.7-4c-3.3-3.2-5.1-7.9-5.3-13.2
			c-0.1-1.1-0.1-2.2,0-3.4C119.4,328.8,119.5,327.5,119.7,326.3"/>
		<path d="M70.4,312.7c0.8,0.8,1.5,1.7,2,2.5c1.7,2.8,2.3,5.8,2.3,8.4c0,2.5-0.5,5.5-2.3,8.5c-0.7,1.1-1.3,2.1-2.3,2.9
			c1.3-3.5,2-7.7,2-11.4C72.2,320,71.3,316.4,70.4,312.7 M51.9,322.2c-0.1,0.4-0.1,0.9-0.1,1.3c0,0.3,0,0.8,0.1,1.2
			c0.3,5.4,2.7,17.4,9.6,21c1.3,0.7,2.7,1.1,4.4,1.1c0.7,0,4-0.8,5.4-2c0.4-0.3,0.8-0.7,1.2-1.1c5.3-5.3,6.6-14.7,6.6-20.3
			c0-4.1-1.3-15.1-6.6-20.1c-1.7-1.6-3.9-2.7-6.6-2.7c-1.6,0-3,0.3-4.4,1C54.3,305.1,52.3,316.7,51.9,322.2"/>
	</g>
	<path d="M211.7,337l-6.9,0.1l6.9-13.2l3.7-6.9h0.1l3.2,19.9H211.7z M211.7,297.8l-1.7,0.1l-36,62.7l17.5-0.1l6.4-10.9l13.7-0.1h9
		l2.2,10.9l17.7-0.1l-12.6-62.5L211.7,297.8z"/>
	<polygon points="275.5,296.3 258.7,297.4 247.2,360 284.1,357.5 286.6,343.7 266.6,345 	"/>
	<polygon points="320.7,291.4 303.8,293.6 292.2,356.3 329.5,351.1 332.1,337.4 311.7,340.1 	"/>
	<path d="M375.9,319.2l-7.2,1.4l7.2-14.1l3.6-7.2h0.2l3.4,18.5L375.9,319.2z M375.9,281.3l-2.1,0.3l-37,67.9l18.3-3.7l6.5-11.9
		l14.2-2.9l9.5-2l2.3,10l18.4-3.8l-13.5-57.5L375.9,281.3z"/>
	<g>
		<path d="M444.1,308.7l13.7-1.6c-2.1,7.4-8.3,11.6-15.6,12.5c-11.2,1.3-15.3-7.9-13.6-17.6c1.7-9.5,9.4-20.4,20.6-21.8
			c6.7-0.8,11,2.6,12.3,8.4l17.3-8.5c-3.5-11-12.7-15.6-26.2-13.9c-21,2.5-37.7,17.6-41.6,38c-3.6,19.6,8.3,31.3,28.7,28.9
			c10.9-1.3,21.1-6.2,29.2-15.6c7.2-8.6,9.2-16.4,11.2-25.6l-33.5,4.1L444.1,308.7z"/>
	</g>
	<polygon points="531.2,287.8 507.3,287.9 511.7,263.7 495.1,263.8 483.6,326.5 500.2,326.4 504.9,300.6 528.8,300.6 524.1,326.3 
		540.7,326.2 552.2,263.5 535.6,263.7 	"/>
	<polygon points="596.8,283.8 599.3,270.1 564.2,264.4 552.7,326.9 587.9,332.7 590.4,319 571.3,315.8 573.3,305 591.4,307.9 
		593.9,294.2 575.8,291.2 577.6,280.7 	"/>
	<g>
		<path d="M627.7,305.7c-1.7,0-3.7-0.3-5.5-0.8l-1.5-0.4l2.9-15.6l1.5,0.3c0.9,0.2,1.7,0.5,2.7,0.9c4.2,1.5,7.9,4.2,7,9.8
			C633.8,304.4,630.9,305.7,627.7,305.7 M634.5,317.5c8.9,0.7,15-5.7,16.5-14.2c2.3-13.4-5.5-21.8-17.5-24.8l-6-1.5l-17.7-4.6
			l-11.5,62.5l15.8,4.1l4.5-24h0.1l8.8,23.5l1.7,4.5l19.6,5.1L634.5,317.5z"/>
		<path d="M650.2,353.7c-1,2-2.4,5-2.9,6c-0.3-1.1-1.7-4.1-2.6-6.2l-2-0.1v7.9h1.3v-6.2c0.9,2.3,1.7,4.4,2.7,6.2l0.9,0.1
			c1-2,2-3.9,2.8-6.1v6.2h1.7v-7.8L650.2,353.7z"/>
	</g>
	<polygon points="634.8,354.2 637.4,354.3 637.4,361.2 639,361.2 639,354.3 641.5,354.4 641.5,353.5 634.8,353.1 	"/>
</g>
</svg>
