<?xml version="1.0" encoding="utf-8"?>
<!-- Generator: Adobe Illustrator 27.9.4, SVG Export Plug-In . SVG Version: 9.03 Build 54784)  -->
<svg version="1.1" id="Layer_1" xmlns="http://www.w3.org/2000/svg" xmlns:xlink="http://www.w3.org/1999/xlink" x="0px" y="0px"
	 viewBox="0 0 213.1 61.6" style="enable-background:new 0 0 213.1 61.6;" xml:space="preserve">
<g>
	<path d="M23.5,32c-0.8-7.5,7-13.5,17.6-13.4c10.5,0.1,19.7,6.2,20.6,13.7c0.8,7.5-7,13.5-17.6,13.4C33.6,45.7,24.3,39.5,23.5,32
		 M63.6,34.3c-1-9.3-11.5-16.9-23.7-17C27.8,17.2,18.8,24.7,19.7,34c1,9.3,11.5,16.9,23.7,17C55.5,51.1,64.6,43.6,63.6,34.3"/>
	<path d="M45.3,51.2c-6,6.2-15.5,6.8-21.4,1.2c-5.8-5.6-5.7-15.2,0.2-21.4c6-6.2,15.5-6.8,21.4-1.2C51.4,35.4,51.3,45,45.3,51.2
		 M23.2,30.7c-6.9,7.2-7.1,18.4-0.3,24.9c6.8,6.5,17.9,5.9,24.9-1.3c6.9-7.2,7.1-18.4,0.3-24.9C41.3,22.9,30.1,23.5,23.2,30.7"/>
	<path d="M23.8,7.4c12.4-4.6,24.7,0.1,27.4,10.5c2.7,10.5-5.1,22.7-17.5,27.4C21.3,49.9,9,45.2,6.3,34.7C3.6,24.3,11.4,12,23.8,7.4
		 M12.3,11.4c-12.9,10.2-16.2,25-7.3,33c8.8,8,26.4,6.3,39.3-3.9c12.9-10.2,16.2-25,7.3-33C42.8-0.6,25.2,1.2,12.3,11.4"/>
	<path d="M92.7,43.3h-3V31.4H75.4v11.9h-3V20.4h3v7.5h14.3v-7.5h3V43.3z M129.2,26.1c2.2,0,3.9,0.7,5.1,2c1.2,1.3,1.8,2.7,1.8,5.2
		v10.1h-3V33.1c0-1.5-0.4-2-1.2-2.8c-0.8-0.8-1.8-1.2-3.1-1.2h-2.7c-1.3,0-2.3,0.4-3.1,1.2c-0.8,0.8-1.2,1.3-1.2,2.8v10.2h-3V33.2
		c0-2.5,0.6-3.8,1.8-5.2c1.2-1.3,2.9-2,5.1-2L129.2,26.1z M166.8,26.1v10.2c0,1.5-0.4,2-1.2,2.8c-0.8,0.8-1.8,1.2-3.1,1.2h-1.9
		c-1.3,0-2.3-0.4-3.1-1.2c-0.8-0.8-1.2-1.4-1.2-2.8V26.1h-3.1v10.2c0,1.5-0.4,2-1.2,2.8c-0.8,0.8-1.8,1.2-3.1,1.2h-1.9
		c-1.3,0-2.3-0.4-3.1-1.2c-0.8-0.8-1.2-1.4-1.2-2.8V26.1h-3v10.1c0,2.5,0.6,3.8,1.8,5.2c1.2,1.3,2.9,2,5.1,2h2.4
		c2.2,0,3.9-0.7,5.1-2c0.1-0.2,0.3-0.3,0.4-0.5c0.1,0.2,0.3,0.3,0.4,0.5c1.2,1.3,2.9,2,5.1,2h2.5c2.2,0,3.9-0.7,5.1-2
		c1.2-1.3,1.8-2.7,1.8-5.2V26.1L166.8,26.1z M189.3,28c-1.2-1.3-2.9-2-5.1-2h-3.3c-1.6,0-2.9,0.4-4,1v-6.7h-3v22.9h3.1V33.2
		c0-1.4,0.4-2,1.2-2.8c0.8-0.8,1.8-1.2,3.1-1.2h2.7c1.3,0,2.3,0.4,3.1,1.2c0.8,0.8,1.2,1.4,1.2,2.8v10.1h3V33.2
		C191.2,30.7,190.5,29.4,189.3,28L189.3,28z M212.1,28.5c-1.2-1.6-3.1-2.5-5.8-2.5h-9.8v3h9.5c0.9,0,2,0.1,2.8,0.5
		c0.9,0.5,1.1,1.6,1.1,2.4h-8.4c-2.2,0-3.7,0.3-4.7,0.9c-1.3,0.8-2,2.4-2,4.6c0,2.4,0.6,4,1.9,4.8c0.9,0.6,2.5,0.9,4.8,0.9h8
		c1.1,0,2.1-0.6,2.7-1.4c0.7-0.9,1-2.1,1-3.3v-6.4C213,30.8,212.8,29.5,212.1,28.5z M209.1,39.6c-0.6,0.5-1.7,0.7-3.2,0.7h-4.3
		c-1.2,0-2-0.1-2.5-0.3c-0.8-0.3-1.3-1.1-1.3-2.2c0-1.2,0.4-2,1.3-2.4c0.5-0.3,1.4-0.3,2.5-0.3h5.2c2,0,3.1,0.7,3.2,2.3
		C210,38.3,209.7,39.1,209.1,39.6L209.1,39.6z M113.9,28.5c-1.2-1.6-3.1-2.5-5.8-2.5h-9.8v3h9.5c0.9,0,2,0.1,2.8,0.5
		c0.9,0.5,1.1,1.6,1.1,2.4h-8.4c-2.2,0-3.7,0.3-4.7,0.9c-1.3,0.8-2,2.4-2,4.6c0,2.4,0.6,4,1.9,4.8c0.9,0.6,2.5,0.9,4.8,0.9h8
		c1.2,0,2.1-0.6,2.7-1.4c0.7-0.9,1-2.1,1-3.3v-6.4C114.9,30.8,114.6,29.5,113.9,28.5z M110.9,39.6c-0.6,0.5-1.7,0.7-3.2,0.7h-4.3
		c-1.2,0-2-0.1-2.5-0.3c-0.8-0.3-1.3-1.1-1.3-2.2c0-1.2,0.4-2,1.3-2.4c0.5-0.3,1.4-0.3,2.5-0.3h5.2c2,0,3.1,0.7,3.2,2.3
		C111.8,38.3,111.5,39.1,110.9,39.6z"/>
</g>
</svg>
