<svg viewBox="0 0 880.68 239.19">
  <title>Kisi</title>
  <path
    d="M518.55,146c10.57-10.57,40.53-45.27,56-63.15,2.71-3.25,6.78-7.73-.14-7.73h-39.3a19.19,19.19,0,0,0-12.62,5.7l-39.3,44.58c-2.71,3.11-5,2.31-5-1.9V7.58A7.64,7.64,0,0,0,470.56,0H440.88a7.76,7.76,0,0,0-7.58,7.58V225.51a7.57,7.57,0,0,0,7.58,7.59h29.54a7.56,7.56,0,0,0,7.58-7.59V166c0-4.21,2-4.87,4.61-1.48,0,0,36.86,48.93,48.12,64.37,3.65,4.88,5.83,4.34,8.12,4.34h36.72c4.21,0,5.55-2.71,3.11-6.1Z"
  ></path>
  <path
    d="M618.84,75.08h29.54A7.57,7.57,0,0,1,656,82.67V225.51a7.56,7.56,0,0,1-7.58,7.59H618.84a7.58,7.58,0,0,1-7.58-7.59V82.67A7.56,7.56,0,0,1,618.84,75.08Z"
  ></path>
  <path
    d="M796.38,159a54.25,54.25,0,0,0-15.18-11.39,177.41,177.41,0,0,0-24.38-10.71c-4.76-1.76-8.81-3.52-11.94-5a48.73,48.73,0,0,1-7.32-4.21,10.63,10.63,0,0,1-3.65-4.07,11.36,11.36,0,0,1-.94-4.75c0-7.72,7-11.65,21-11.65a96.32,96.32,0,0,1,20.59,2c3.93,1,7.58,1.77,11.11,3,5.42,1.76,6.64-1.22,7-3.11,1.23-5.7,5-22.5,5-22.5a8.59,8.59,0,0,0-5.56-9.77,116.4,116.4,0,0,0-13.69-3.25A146,146,0,0,0,750.84,71c-19.25,0-34.43,4.33-45.4,12.87s-16.53,20.34-16.53,35.24a53.2,53.2,0,0,0,3.25,19.51,39,39,0,0,0,9.35,14,57,57,0,0,0,14.64,10q9.35,4.47,19.11,8.12A129,129,0,0,1,755.45,180c4.34,2.71,6.64,5.84,6.64,9.49,0,4.61-1.76,7.72-5.15,9.35s-9.23,2.44-17.49,2.44a107.67,107.67,0,0,1-23.72-2.57q-5.68-1.23-11.39-2.84c-2.71-.82-5.42-1.77-8.13-2.71-1.36-.54-3.93-1.36-4.75,2.3-1.36,6.24-5.15,25.07-5.15,25.07a8.36,8.36,0,0,0,5.55,10s2.85,1.08,12.2,3.39,21,3.65,35,3.65c21.42,0,38-3.93,49.74-12.05s17.62-19.8,17.62-35.38a64.06,64.06,0,0,0-2.16-17.49A33.62,33.62,0,0,0,796.38,159Z"
  ></path>
  <path
    d="M843.55,75.08h29.54a7.57,7.57,0,0,1,7.59,7.59V225.51a7.57,7.57,0,0,1-7.59,7.59H843.55a7.56,7.56,0,0,1-7.58-7.59V82.67A7.56,7.56,0,0,1,843.55,75.08Z"
  ></path>
  <path
    d="M344.39,62.38V233.1H173.68v0a396.53,396.53,0,0,0,9.21-85.32,397.66,397.66,0,0,0-9.21-85.32v0H344.39Z"
  ></path>
  <circle cx="91.45" cy="147.74" r="91.45"></circle>
</svg>
