<?xml version="1.0" encoding="utf-8"?>
<!-- Generator: Adobe Illustrator 27.9.4, SVG Export Plug-In . SVG Version: 9.03 Build 54784)  -->
<svg version="1.1" id="Layer_1" xmlns="http://www.w3.org/2000/svg" xmlns:xlink="http://www.w3.org/1999/xlink" x="0px" y="0px"
	 viewBox="0 0 146.1 164.6" style="enable-background:new 0 0 146.1 164.6;" xml:space="preserve">
<path d="M112.5,0h20.4l-29,29.8l42.3,110.6H83L72.6,29.8C72.6,29.8,112.5,0,112.5,0z M62.8,0H0.1v140.6h62.7V0z M0,147.6v17h5.2
	v-6.5H8l7.6,6.5h7.9L12.8,156l9.8-8.4h-7.9L8,153.8H5.2v-6.2H0z M24.2,164.6h5.2v-4.3h7.3c2.1,0,2.5,0.1,2.9,0.5
	c0.4,0.4,0.5,1,0.5,3v0.9h5.1v-1.6c0.1-3.9-0.4-4.7-3-5c1-0.2,1.5-0.3,2-0.7c0.9-0.7,1.2-1.7,1.2-4.2c0-3-0.4-4.1-1.7-4.9
	c-1.1-0.7-1.1-0.7-7-0.7H24.2V164.6L24.2,164.6z M29.3,156.1v-4.2h7.3c2.3,0,2.4,0,2.8,0.2c0.5,0.2,0.7,0.7,0.7,1.9
	c0,1.1-0.2,1.6-0.6,1.8c-0.4,0.3-0.4,0.3-3,0.3L29.3,156.1L29.3,156.1z M65.5,164.6h5.9l-8.9-17h-8.1l-9,17h5.9l1.5-2.9h11.2
	C64.1,161.8,65.5,164.6,65.5,164.6z M62.3,158h-7.6l3.3-6.4h1L62.3,158z M72.2,147.6v17h5.1l-0.1-12.7h0.9l6.4,12.7h4.3l6.4-12.7
	h0.9l-0.1,12.7h5.1v-17h-9.3l-5.1,11l-5-11H72.2z M103.4,147.6v17h18.9v-4.1h-13.8v-2.7h13v-3.7h-13v-2.5h13.7v-4L103.4,147.6
	L103.4,147.6z M124,164.6h5.2v-4.3h7.3c2.1,0,2.5,0.1,2.9,0.5c0.4,0.4,0.5,1,0.5,3v0.9h5.1v-1.6c0.1-3.9-0.4-4.7-3-5
	c1-0.2,1.5-0.3,2-0.7c0.9-0.7,1.2-1.7,1.2-4.2c0-3-0.4-4.1-1.7-4.9c-1.1-0.7-1.1-0.7-7-0.7H124L124,164.6L124,164.6z M129.1,156.1
	v-4.2h7.3c2.3,0,2.4,0,2.8,0.2c0.5,0.2,0.7,0.7,0.7,1.9c0,1.1-0.2,1.6-0.6,1.8c-0.4,0.3-0.4,0.3-3,0.3L129.1,156.1L129.1,156.1z"/>
</svg>
