<?xml version="1.0" encoding="utf-8"?>
<!-- Generator: Adobe Illustrator 27.9.4, SVG Export Plug-In . SVG Version: 9.03 Build 54784)  -->
<svg version="1.1" id="Layer_1" xmlns="http://www.w3.org/2000/svg" xmlns:xlink="http://www.w3.org/1999/xlink" x="0px" y="0px"
	 viewBox="0 0 285 69.2" style="enable-background:new 0 0 285 69.2;" xml:space="preserve">
<g>
	<path d="M62.9,1.9h11.6v49.7H62.9V1.9z M111.8,36H87.4c0,5.1,2.5,7.9,7.2,7.9c2.5,0,4.3-0.9,5.5-3.2h11.1
		c-1.9,8.3-9.2,12.1-16.6,12.1c-10.8,0-18.9-6.6-18.9-18.8c0-11.8,7.4-18.9,18.1-18.9c11.3,0,17.9,7.6,17.9,19.6L111.8,36L111.8,36z
		 M101,28.8c-0.5-3.2-3.3-5.6-6.6-5.6c-3.4,0-6.2,1.9-6.9,5.6H101z M150.4,48.1c0,15-6.9,21.1-18.9,21.1c-7.5,0-17.6-4.2-18.6-13.5
		h13c0.3,1.2,1.1,2.1,2.2,2.7c1,0.5,2.2,0.8,3.3,0.8c6.2,0,7.5-4.4,7.5-10.1v-1.6c-3,3.2-6.1,4.8-10.4,4.8c-9.6,0-16.1-7.8-16.1-18
		c0-10.3,6.8-19.1,16.7-19.1c3.8,0,7.3,1.4,9.6,4.9h0.1v-3.7h11.6L150.4,48.1L150.4,48.1z M124.3,33.7c0,4.5,2.7,7.9,7.4,7.9
		s7.4-3.4,7.4-7.9c0-4.3-2.7-8-7.4-8S124.3,29.3,124.3,33.7 M214.9,20.8h0.1c2.7-4.3,5.5-4.6,10-4.8c7.4-0.2,10.9,3.4,10.9,13.7
		v21.8h-11.6V36.2c0-3.4-0.2-9.7-4.8-9.3c-4.7,0.5-4.7,3.8-4.7,8.2v16.4h-11.6V16.2h11.6L214.9,20.8L214.9,20.8z M263.6,47.6h-0.1
		c-2.1,3.5-6.1,5.1-9.9,5.1c-9.7,0-16.5-8.8-16.5-18.8c0-10.1,6.7-18.8,16.4-18.8c3.8,0,7.7,1.5,10.1,4.6V1.9h11.6v49.7h-11.6V47.6
		L263.6,47.6z M249.1,33.9c0,4.5,2.7,7.9,7.4,7.9c4.7,0,7.4-3.4,7.4-7.9c0-4.3-2.7-8-7.4-8C251.8,25.9,249.1,29.6,249.1,33.9
		 M277.2,5.8c0-2.2,1.7-3.9,3.9-3.9c2.1,0,3.9,1.7,3.9,3.8l0,0c0,2.2-1.7,3.9-3.9,3.9C278.9,9.7,277.2,8,277.2,5.8L277.2,5.8
		 M277.8,5.8c0,1.8,1.5,3.2,3.2,3.2c1.8,0,3.3-1.4,3.3-3.2s-1.5-3.3-3.3-3.3C279.3,2.5,277.8,3.9,277.8,5.8 M282.9,8h-0.7L281,6
		h-0.8v2h-0.6V3.6h1.8c0.8,0,1.5,0.2,1.5,1.2c0,0.9-0.6,1.2-1.2,1.2L282.9,8z M280.2,4.2v1.1h0.7c0.6,0,1.4,0.1,1.4-0.5
		c0-0.5-0.5-0.6-1-0.6H280.2z M201.4,25.7V25c0-2.2-2.5-8.7-13.5-8.9c-4.9,0-10,0-10,0v8c0,0,7.5-0.4,10.4,1.1
		c2,1.1,1.6,2.6,1.9,3.4c-1.7-2-4.4-2.3-8.7-2.3c-6.7,0-11.3,6-11.3,13s4.7,13.1,11.4,13.1c2.6,0,6.7-0.1,8.7-3.5l0.1,2.8h11.1
		L201.4,25.7L201.4,25.7z M185.3,44.1c-3.3,0-5.2-1.8-5.2-4.9c0-3,1.9-5.1,5.2-5.1s5.2,2.1,5.2,5.1
		C190.5,42.3,188.6,44.1,185.3,44.1"/>
	<path d="M163.8,22h0.1c2.2-4.2,5.4-4.9,10.2-5.6h2.1V24c-2.2,0.2-3.7,0.7-6.1,2.2c-3.6,2.4-6.4,5.8-6.4,11.6v13.7h-11.1V16.4h11.1
		L163.8,22z M20.2,3.6V17h12.6v19l0,0v13.8h13.4V3.6H20.2z M13.4,17.3L13.4,17.3L13.3,3.6H0v46.2h25.9V36.4H13.4V17.3z"/>
	<path d="M28,36.3h2.6v17H28V36.3z M15.2,0h2.6v17h-2.6C15.2,17,15.2,0,15.2,0z"/>
</g>
</svg>
