<?xml version="1.0" encoding="utf-8"?>
<!-- Generator: Adobe Illustrator 27.9.4, SVG Export Plug-In . SVG Version: 9.03 Build 54784)  -->
<svg version="1.1" id="Layer_1" xmlns="http://www.w3.org/2000/svg" xmlns:xlink="http://www.w3.org/1999/xlink" x="0px" y="0px"
	 viewBox="0 0 198.2 31.4" style="enable-background:new 0 0 198.2 31.4;" xml:space="preserve">
<path d="M155.6,15.7c0,8.6-7.2,15.6-16.1,15.6c-8.9,0-16.1-7-16.1-15.6S130.6,0,139.5,0C148.4,0.1,155.6,7.1,155.6,15.7 M139.5,8.2
	c-4,0-7.2,3.4-7.2,7.5c0,4.2,3.2,7.5,7.2,7.5s7.2-3.4,7.2-7.5C146.8,11.5,143.5,8.2,139.5,8.2"/>
<polygon points="0,0.6 0,30.9 20.5,30.9 20.5,22.9 8.5,22.9 8.5,0.6 "/>
<polygon points="25.2,0.6 25.2,30.9 47.9,30.9 47.9,23 33.7,23 33.7,18.8 44,18.8 44,12.4 33.7,12.4 33.7,8.5 47.7,8.5 47.7,0.6 "/>
<path d="M73.2,0.6c0,0-4.8,13-6.4,17.3c-1.6-4.4-6.4-17.3-6.4-17.3H51l12.1,30.5h7.1L82.4,0.6C82.4,0.6,73.2,0.6,73.2,0.6z"/>
<rect x="86" y="0.6" width="8.6" height="30.3"/>
<polygon points="99.9,0.6 99.9,8.7 107.4,8.7 107.4,30.9 116,30.9 116,8.7 123.5,8.7 123.5,0.6 "/>
<path d="M177.5,0.6v15.2c-3-4-11.2-15.2-11.2-15.2h-7.5v30.8h8.5V15.6c3.1,4,11.7,15.8,11.7,15.8h7V0.6H177.5z"/>
<path d="M193.4,31.4c-2.7,0-4.8-2.2-4.8-4.8c0-2.7,2.2-4.8,4.8-4.8c2.7,0,4.8,2.2,4.8,4.8C198.2,29.2,196.1,31.4,193.4,31.4
	 M193.4,22.6c-2.2,0-3.9,1.8-3.9,3.9c0,2.2,1.8,3.9,3.9,3.9c2.2,0,3.9-1.8,3.9-3.9S195.6,22.6,193.4,22.6 M194.7,29.5l-1.3-2.1
	c0-0.1-0.1-0.2-0.1-0.3h-1.2v2.3h-0.9v-6h2.2c1.5,0,2.1,0.7,2.1,1.8c0,0.8-0.4,1.5-1.3,1.7l1.6,2.4h-1.1V29.5z M193.4,24.4h-1.3v1.8
	h1.3c0.8,0,1.2-0.2,1.2-0.9C194.6,24.7,194.2,24.4,193.4,24.4"/>
</svg>
