<?xml version="1.0" encoding="utf-8"?>
<!-- Generator: Adobe Illustrator 27.9.4, SVG Export Plug-In . SVG Version: 9.03 Build 54784)  -->
<svg version="1.1" id="Layer_1" xmlns="http://www.w3.org/2000/svg" xmlns:xlink="http://www.w3.org/1999/xlink" x="0px" y="0px"
	 viewBox="0 0 187.1 113.2" style="enable-background:new 0 0 187.1 113.2;" xml:space="preserve">
<style type="text/css">
	.st0{fill-rule:evenodd;clip-rule:evenodd;}
</style>
<g>
	<path class="st0" d="M56.6,0C25.3,0,0,25.4,0,56.6c0,31.2,25.3,56.6,56.6,56.6c31.2,0,56.6-25.3,56.6-56.6S87.9,0,56.6,0z
		 M35.8,29.1c3.7,0,6.8,3.1,6.8,6.8c0,3.8-3.1,6.8-6.8,6.8c-3.8,0-6.8-3.1-6.8-6.8C29,32.2,32,29.1,35.8,29.1z M62.5,83.9h-8V30.5
		h5.3v48h10.7v5.3L62.5,83.9C62.5,83.9,62.5,83.9,62.5,83.9z M62.5,100.8c20-2.6,35.9-18.7,38.3-38.8H70.5v-5.6h35.2
		c0,25-18.8,45.9-43.2,48.9c-1.9,0.2-3.9,0.3-5.8,0.3c-7.5,0-14.6-1.6-20.8-4.6C19.1,93.2,7.5,76.2,7.5,56.6
		C7.5,37,19.1,20,35.8,12.2c6-2.8,12.7-4.4,19.8-4.6v4.6c-6.9,0.1-13.7,1.9-19.8,5.1c-14.1,7.5-23.8,22.3-23.8,39.4
		S21.7,88.5,35.8,96c6.2,3.3,13.3,5.1,20.8,5.1C58.6,101.1,60.6,101,62.5,100.8z M117,77.8V39h12.8v29.7h17.5v9.1
		C147.2,77.8,117,77.8,117,77.8z M187.1,78h-8.3l-0.4-3.9c-2.1,2.5-5.6,4.8-11.8,4.8c-9.9,0-18.8-6.4-18.8-20
		c0-12.4,7.8-20.9,20.4-20.9c9.3,0,16.8,4.8,18.4,14.4h-12.1c-0.9-3.2-3.2-4.9-6.6-4.9c-5,0-7.3,4.6-7.3,11.3
		c0,5.5,1.7,10.6,8.1,10.6c2.6,0,5.9-1.8,6.6-4.5h-5.6v-8.3h17.5L187.1,78L187.1,78L187.1,78z"/>
</g>
</svg>
