<?xml version="1.0" encoding="utf-8"?>
<!-- Generator: Adobe Illustrator 27.9.4, SVG Export Plug-In . SVG Version: 9.03 Build 54784)  -->
<svg version="1.1" id="Layer_1" xmlns="http://www.w3.org/2000/svg" xmlns:xlink="http://www.w3.org/1999/xlink" x="0px" y="0px"
	 viewBox="0 0 24 16.5" style="enable-background:new 0 0 24 16.5;" xml:space="preserve">
<path d="M24,1.4c0,0.7-0.6,1.4-1.4,1.4l0,0c-0.7,0-1.4-0.6-1.4-1.3c0,0,0,0,0,0c0-0.7,0.6-1.4,1.3-1.4c0,0,0,0,0,0
	C23.4,0,24,0.6,24,1.4C24,1.3,24,1.3,24,1.4L24,1.4z M16.5,14.6c-1.3,0-2.3-1-2.3-2.3c0,0,0,0,0-0.1h-2c0,2.4,1.9,4.3,4.3,4.3
	s4.3-1.9,4.3-4.3h-2C18.8,13.6,17.8,14.6,16.5,14.6L16.5,14.6z M21.7,11.7h2V3.6h-2V11.7z M0,11.7h2V0.3H0V11.7z M7.1,3.4
	c-2.4,0-4.3,1.9-4.3,4.3c0,2.4,1.9,4.3,4.2,4.3c0,0,0,0,0.1,0c2.4,0,4.3-1.9,4.3-4.3S9.6,3.4,7.1,3.4z M7.1,10c-1.3,0-2.3-1-2.3-2.4
	c0-1.3,1-2.3,2.3-2.3c0,0,0,0,0.1,0c1.3,0,2.3,1,2.3,2.3c0,0,0,0,0,0.1C9.5,8.9,8.5,10,7.1,10z M20.8,5.2V3.6h-2.8
	c-0.5-0.2-0.9-0.3-1.4-0.3c-2.4,0-4.3,1.9-4.3,4.3c0,2.4,1.9,4.3,4.3,4.3s4.3-1.9,4.3-4.3c0-0.8-0.3-1.6-0.7-2.2L20.8,5.2z M16.5,10
	c-1.3,0-2.3-1-2.3-2.4c0-1.3,1-2.3,2.3-2.3c0,0,0,0,0.1,0c1.3,0,2.3,1,2.3,2.3c0,0,0,0,0,0.1C18.9,8.9,17.8,10,16.5,10z"/>
</svg>
