<?xml version="1.0" encoding="utf-8"?>
<!-- Generator: Adobe Illustrator 27.9.4, SVG Export Plug-In . SVG Version: 9.03 Build 54784)  -->
<svg version="1.1" id="Layer_1" xmlns="http://www.w3.org/2000/svg" xmlns:xlink="http://www.w3.org/1999/xlink" x="0px" y="0px"
	 viewBox="0 0 600 120" style="enable-background:new 0 0 600 120;" xml:space="preserve">
<path id="logo_new_copy_2" d="M275.2,86.7h13.4V17.3l-13.4,12.6V86.7z M245.6,86.7H259V37.6h-13.4V86.7z M245.6,29.8H259V17.6h-13.4
	V29.8L245.6,29.8z M215.5,36.1c-7.1-0.3-13.9,3.4-17.5,9.5c-1.9-6.1-7.8-10.1-14.2-9.5c-7,0-13.5,3.7-17.1,9.7h-0.1
	c0-2.5,0-8.4,0-8.4h-12v49.3h13v-25c0-9.1,5-15.6,11-15.6c5.3,0,8.5,4.6,8.5,10.7v29.8h12.5V62.1c0-9.9,4.6-16.1,10.8-16.1
	c5.5,0,8.7,4.6,8.7,13.1v27.4h13.1V57.7C232.3,45.8,227.9,36.1,215.5,36.1L215.5,36.1z M462.1,36.1C446,36.1,435,46.2,435,62
	c0.2,14.7,12.4,26.5,27.1,26.3c14.4-0.2,26-11.8,26.3-26.2c0.6-13.8-10.1-25.4-23.9-26C463.7,36.1,462.9,36.1,462.1,36.1L462.1,36.1
	z M461.6,78.8c-7.9,0-12.7-7.1-12.7-16.7c0-10.5,5-16.9,12.8-16.9c7.9,0,13,6.3,13,16.4C474.7,71.8,469.8,78.8,461.6,78.8z
	 M525.6,36.1c-6.6-0.3-12.9,3.1-16.2,8.8h-0.2v-7.6l-13-0.1v49.4H509V64.4c-0.2-3.9,0.5-7.8,2.1-11.4c2.1-4,6.1-6.5,10.6-6.7
	c8.6,0,9.4,7.3,9.4,16.7v23.6h12.8V58C543.9,44.9,538.9,36.1,525.6,36.1z M424.4,77.3c-6.3,0-8.1-3.7-8.1-11.1V47.4H429v-10h-12.7
	V17.5L404,29.1v8.2h-9.8v10h9.6v21.4c0,13,5.2,18.8,16.7,18.8c3.1,0.1,6.3-0.3,9.3-1.2l-0.3-9.8C427.8,77,426.1,77.3,424.4,77.3z
	 M600,62.7c0-17.7-7.8-26.6-22.3-26.6c-13.6-0.4-25,10.3-25.4,23.9c0,0.6,0,1.3,0,1.9c0,16.5,11.1,26.3,27.6,26.3
	c5.7,0.1,11.4-1,16.7-3.2l-0.2-10.5c-4.5,2.7-9.7,4.1-14.9,4c-9,0-15.6-5.6-15.8-13.1h34.2C599.9,64.5,600,63.6,600,62.7z
	 M565.4,57.3c0.8-8.7,6.1-12.1,11.8-12.1c6.4,0,10.8,3.3,10.8,12.1H565.4z M346,62.7c0-17.7-7.8-26.6-22.3-26.6
	c-13.6-0.4-25,10.3-25.4,23.9c0,0.6,0,1.3,0,1.9c0,16.5,11.1,26.3,27.6,26.3c5.7,0.1,11.4-1,16.7-3.2l-0.2-10.5
	c-4.5,2.7-9.7,4.1-14.9,4c-9,0-15.6-5.6-15.8-13.1h34.2C346,64.5,346,63.6,346,62.7L346,62.7z M311.4,57.3
	c0.8-8.7,6.1-12.1,11.8-12.1c6.4,0,10.8,3.3,10.8,12.1H311.4L311.4,57.3z M375.6,57.6c-7.1-2.3-9.5-3.8-9.5-7.1s3.6-5.5,7.9-5.5
	c4,0,8,0.9,11.6,2.6v-9.9c-3.9-1.3-8.1-1.9-12.2-1.8c-12,0-20.2,6.1-20.2,15.4c0,7.2,4.5,10.6,14,13.8c8,2.8,9.8,4.4,9.8,7.9
	s-4.1,5.6-8.5,5.6c-4.8-0.1-9.5-1.1-13.9-3.2v10.3c4.7,1.5,9.6,2.3,14.5,2.2c12.1,0,20.9-5.9,20.9-16
	C390.2,63.6,384.5,60.5,375.6,57.6L375.6,57.6z M61.2,120L0,60L61.2,0l61.2,60L61.2,120z"/>
</svg>
