<?xml version="1.0" encoding="utf-8"?>
<!-- Generator: Adobe Illustrator 27.9.4, SVG Export Plug-In . SVG Version: 9.03 Build 54784)  -->
<svg version="1.1" id="Layer_1" xmlns="http://www.w3.org/2000/svg" xmlns:xlink="http://www.w3.org/1999/xlink" x="0px" y="0px"
	 viewBox="0 0 885.8 396.1" style="enable-background:new 0 0 885.8 396.1;" xml:space="preserve">
<g id="layer1" transform="translate(-609.42319,1798.6825)">
	<g id="g5330" transform="translate(35.433031,35.468287)">
		<path id="path4685" d="M1459.8-1710.4l-233.4,88.6l13.6-29.3L923.8-1543l17.5-36.2l-367.2,141.1l275.7-69.2l-22.6,43.5
			l341.8-127.3l-19.5,37.9L1459.8-1710.4z"/>
		<path id="path4689" d="M1407.7-1817.8c1.7,0,3.2-0.1,3.2-2.1c0-1.6-1.5-1.9-2.9-1.9h-2.7v4H1407.7z M1405.3-1810.5h-2v-13h5
			c3.1,0,4.6,1.1,4.6,3.7c0,2.3-1.4,3.4-3.4,3.6l3.7,5.7h-2.2l-3.5-5.6h-2.2V-1810.5z M1407.7-1807.5c5.1,0,9.2-4,9.2-9.5
			c0-5.3-4.1-9.4-9.2-9.4c-5.2,0-9.2,4-9.2,9.4C1398.5-1811.6,1402.5-1807.5,1407.7-1807.5 M1396.2-1817c0-6.5,5.3-11.3,11.5-11.3
			c6.2,0,11.4,4.8,11.4,11.3c0,6.6-5.3,11.4-11.4,11.4C1401.5-1805.6,1396.2-1810.5,1396.2-1817"/>
		<path id="path4693" d="M780-1780.2l-40.5,34.2c0,0-16.1-18.1-17.3-19.5c-1.4,1.2-34.5,29.3-34.5,29.3l4.7-46.6L574-1683.1
			l80.9-38.8l-20.8,174.3c0,0,24.8,18.3,26.8,19.7c2.1-16.6,22.1-176.3,23.2-185l0.1-0.4l23.4-19.8l5,4.9l-18.8,159
			c0,0,25.2,18.8,26.8,19.9c0.2-1.6,17-145.7,21.1-180.1l23.3-19.7l4.9,4.9L751.5-1589l26.8,19.7l21.9-188.7L780-1780.2z"/>
		<path id="path4697" d="M845.7-1745.3l-27.9,4.7l-3.5,27.4l27.9-5.3L845.7-1745.3z M995.9-1733.9l-11.2,86.9l-6.2,6.7L968-1649
			l10.4-81.8l-28,6.8l-10.8,85.1l-8.3,11l-8.8-7.8l10.5-85.6l-28.1,5.9l-9.4,77.8l-11.6,15.8l-8.2-6.7l18.1-146.5l-27.4,4.4
			l-16.9,140.7l-13.9,19.2l-6.9-5.7l11.6-85.8l-28,5.7l-13,99.4l24.6,19.3l24.2-32.7l25.3,20.3l24.4-33.2l26.1,22.7l25.8-34.1
			l21,18.4l36.2-39.4l11.1-83.1L995.9-1733.9z M1062.3-1676.7l-11.3,13.8l-6-5.2l9.2-72.3l15.2,8.1L1062.3-1676.7z M1307.9-1780.3
			l13.2,15.4l-16.4,9L1307.9-1780.3z M1378.2-1794.6l12.2,14.5l-15.1,8.5L1378.2-1794.6z M1380-1737.6l-8.1-6.8l1.7-13.3l37.6-21.3
			l-30.3-37.6l-27.7,24.1l-6.5,52.2l-36.8,20.3l-8.8-7.2l1.8-14l40.9-22.5l-32.9-39.8l-30.1,25.6l-6.4,49.5l-13.4,12.9l-21-41.5
			l47.1-43l-21.4,3.1l-35.5,30.2l8.5-67.6l-25.6,3.5l-14.3,115.8l-15.5,17.1l-3.7-3.1l9.3-73.5l-27.6,6.3l-8.6,66.5l-12.3,14.8
			l-5.2-4.5l9.3-72.9l-27.8,5.5l-8.6,68.2l-12.9,16.4l-5.6-4.9l9.6-76.1l-27.7,6l-0.6,5.9l-19.4-9.3l-27.2,34.8l-7.9,62.1l26.3,22.4
			l24.2-31.1l20.8,17.6l22.7-29.1l19.5,17.1l21.4-28l20.4,17.7l27.6-30l21,16.7l6.3-50.9l22.1,45.4l29.3-28.6l19,16l56.7-31.3
			l14.5,12.5l52.1-30.4l1.4-11.2L1380-1737.6z"/>
	</g>
</g>
</svg>
