<?xml version="1.0" encoding="utf-8"?>
<!-- Generator: Adobe Illustrator 27.9.4, SVG Export Plug-In . SVG Version: 9.03 Build 54784)  -->
<svg version="1.1" id="Layer_1" xmlns="http://www.w3.org/2000/svg" xmlns:xlink="http://www.w3.org/1999/xlink" x="0px" y="0px"
	 viewBox="0 0 792 514.8" style="enable-background:new 0 0 792 514.8;" xml:space="preserve">
<path d="M792,356h-49.4v102.5c-0.1,5.4,0.5,10.8,1.9,16.1c1,3.7,2.8,7.1,5.4,9.9c2.3,2.3,5.2,4,8.4,4.9c3.4,0.9,7,1.3,10.5,1.3
	c3.7,0,7.4-0.5,11-1.5c3.8-1,7.5-2.4,11-4.1l1.2,22.1c-4.5,1.8-9.2,3.1-14,3.9c-5.3,0.9-10.6,1.4-16,1.3c-5.1,0-10.1-0.7-15-1.9
	c-5.3-1.3-10.3-3.7-14.6-7.1c-4.7-3.8-8.5-8.7-11-14.2c-2.9-6-4.3-13.9-4.3-23.6V356h-36.3v-21.3h36.3v-49.1h25.5v49.1H792V356z"/>
<path d="M542,334.7v29.7h0.1c5-10.2,12.6-17.9,23.9-24.3c10.8-6.3,23.1-9.6,35.6-9.5c22.2,0,38.9,6.6,50,19.9s16.7,30.7,16.7,52.4
	v107.5h-25.4v-97c0.1-8.4-0.7-16.8-2.2-25.1c-1.3-6.9-3.9-13.4-7.7-19.3c-3.7-5.4-8.7-9.7-14.6-12.5c-6.1-3-13.8-4.5-23-4.5
	c-6.8,0-13.5,1.4-19.7,4.1c-6.5,2.9-12.3,7.2-17,12.5c-5,5.6-9,12.7-12,21.4s-4.5,18.8-4.6,30.5v89.9h-25.5V334.7L542,334.7z"/>
<path d="M458.5,475.6c-3.4,3-7,5.8-10.8,8.2c-9.6,6.1-21,9.2-34.3,9.2c-8.6,0.1-17.2-1.6-25.1-5c-7.5-3.2-14.4-7.9-20.2-13.7
	c-5.8-5.8-10.4-12.7-13.5-20.2c-3.3-7.8-5.1-16.2-5.2-24.7h145.3c0.2-2.1,0.4-4.2,0.4-6.4v-5.6c0.1-11.5-1.8-22.9-5.4-33.7
	c-3.4-10.1-8.8-19.5-15.9-27.5c-7.3-8.1-16.2-14.5-26.2-18.7c-10.5-4.6-22.6-6.9-36.3-6.9c-12-0.1-23.8,2.3-34.8,6.9
	c-10.6,4.5-20.1,11.1-28.1,19.3c-8.1,8.4-14.5,18.3-18.7,29.2c-4.6,11.7-6.9,24.1-6.7,36.7c-0.1,12.6,2.2,25,6.9,36.7
	c4.4,10.9,10.8,20.8,18.9,29.2c8.1,8.3,17.9,14.9,28.6,19.3c11.5,4.7,23.8,7,36.1,6.9c14,0.1,27.9-2.8,40.6-8.6
	c12.6-5.7,25.5-15.9,36.2-30.5L458.5,475.6z M355.4,387.6c3.2-6.9,7.7-13.1,13.1-18.4c5.5-5.4,12-9.7,19.1-12.7
	c7.5-3.2,15.5-4.8,23.6-4.7c18.2,0,32.3,5.4,42.1,16.3s15.2,24.5,15.9,41H349.8C350.2,401.7,352.2,394.4,355.4,387.6"/>
<polygon points="329.9,245.1 243.7,475.4 243,475.4 190.3,334.7 161.8,334.7 228.8,510.3 257.2,510.3 358.7,245.1 "/>
<path d="M25.5,334.7v29.7h0.1c5-10.2,12.6-17.9,23.9-24.3c10.8-6.3,23.1-9.6,35.6-9.5c22.2,0,38.9,6.6,50,19.9s16.7,30.7,16.7,52.4
	v107.5h-25.4v-97c0.1-8.4-0.7-16.8-2.2-25.1c-1.3-6.9-3.9-13.4-7.7-19.3c-3.7-5.4-8.7-9.7-14.6-12.5c-6.1-3-13.8-4.5-23-4.5
	c-6.8,0-13.5,1.4-19.7,4.1c-6.5,2.9-12.3,7.2-17,12.5c-5,5.6-9,12.7-12,21.4s-4.5,18.8-4.5,30.5v89.9H0V334.7H25.5z"/>
<path d="M192.7,207.6c-1.5-7.5,3.3-14.8,10.8-16.3l81.3-16.4c7.5-1.5,14.8,3.3,16.3,10.8s-3.3,14.8-10.8,16.3l-81.3,16.4
	C201.5,219.9,194.2,215.1,192.7,207.6"/>
<path d="M310.6,136.7c-4.2,6.4-12.8,8.1-19.2,3.9c0,0,0,0,0,0l-69-45.9c-6.4-4.2-8.2-12.7-4.1-19.1c4.2-6.4,12.7-8.2,19.1-4.1
	c0.1,0.1,0.2,0.1,0.2,0.2l69,45.9C313.1,121.8,314.8,130.4,310.6,136.7C310.6,136.7,310.6,136.7,310.6,136.7"/>
<path d="M362.9,92.5c1.4,7.5-3.6,14.7-11.1,16.1c-7.3,1.4-14.4-3.3-16-10.6l-16.4-81.2c-1.6-7.5,3.1-14.8,10.6-16.4
	s14.8,3.1,16.4,10.6c0,0.1,0.1,0.3,0.1,0.4L362.9,92.5z"/>
<path d="M397.3,99.3l45.9-69c4.2-6.4,12.8-8.1,19.1-3.9c6.4,4.2,8.1,12.8,3.9,19.1l-45.9,69c-4.1,6.4-12.6,8.4-19.1,4.3
	c-6.4-4.1-8.4-12.6-4.3-19.1C397.1,99.7,397.2,99.5,397.3,99.3"/>
<path d="M526.6,154.4l-81.2,16.4c-7.5,1.5-14.8-3.3-16.3-10.8s3.3-14.8,10.8-16.3l81.3-16.4c7.5-1.7,14.8,3,16.5,10.5
	c1.7,7.5-3,14.8-10.5,16.5C527,154.3,526.8,154.3,526.6,154.4"/>
<path d="M511.5,270.2c-4.2,6.4-12.8,8.1-19.1,3.9c0,0,0,0,0,0l-69.1-45.9c-6.3-4.3-7.9-12.9-3.7-19.2c4.2-6.2,12.6-7.9,18.9-3.8
	l69,45.9C514,255.3,515.7,263.8,511.5,270.2C511.5,270.2,511.5,270.2,511.5,270.2"/>
</svg>
