<?xml version="1.0" encoding="utf-8"?>
<!-- Generator: Adobe Illustrator 27.9.4, SVG Export Plug-In . SVG Version: 9.03 Build 54784)  -->
<svg version="1.1" id="Layer_1" xmlns="http://www.w3.org/2000/svg" xmlns:xlink="http://www.w3.org/1999/xlink" x="0px" y="0px"
	 viewBox="0 0 199.9 46.3" style="enable-background:new 0 0 199.9 46.3;" xml:space="preserve">
<path d="M85.2,24.3L80.4,11H66.8v23.5L57.7,11H46.8C45.2,4.5,40.6,0.1,32.2,0L0,0.1v46.1h20.5v-15h12c2.3,0,4.4-0.4,6.3-1.1
	l-6.5,16.2h11.5l2.4-6.4h11l2.5,6.4h17V33l5.5,13.2h12.9V11.1h-9.8L85.2,24.3L85.2,24.3z M27.5,21.2c0,1.3-0.8,2.3-2.2,2.4h-3.8V7
	h3.8c1.4-0.1,2.2,1.1,2.2,2.4V21.2z M48.5,32.5l3.6-9.5l3.5,9.5H48.5z M160.5,46.2h11V11.1h-11V46.2z M147.5,36c0,0.8,0,2.4-1.2,2.4
	h-2.8c-1.2,0-1.3-1.3-1.3-2.4V11h-11.4v27.8c0,6.9,7.2,7.3,7.2,7.3h12.5c6.2,0,6.1-7.2,6.1-7.2V11.1h-9.4
	C147.4,25.6,147.5,36,147.5,36z M173.7,10.9v7.2h7.7v28h10.7v-28h7.8v-7.2H173.7z M121.3,10.8H99.6V46h21.7c3.2,0,5.8-1,5.8-4.8
	V15.6C127,12.7,124.5,10.8,121.3,10.8z M116.8,35.1c0,1.6-0.8,2.3-1.7,2.3H112V18.2h2.8c1.2,0,2,1,2,2.3V35.1z"/>
</svg>
