<?xml version="1.0" encoding="utf-8"?>
<!-- Generator: Adobe Illustrator 27.9.4, SVG Export Plug-In . SVG Version: 9.03 Build 54784)  -->
<svg version="1.1" id="Layer_1" xmlns="http://www.w3.org/2000/svg" xmlns:xlink="http://www.w3.org/1999/xlink" x="0px" y="0px"
	 viewBox="0 0 24 3.7" style="enable-background:new 0 0 24 3.7;" xml:space="preserve">
<path d="M19.8,0.1l0,2.7h0l-0.8-2.7h-1.3v3.4h0.8l0-2.8h0l0.8,2.8h1.2V0.1H19.8z M3.7,0.1L3,3.5H4l0.5-3.1h0l0.5,3.1h0.9L5.2,0.1
	H3.7z M8.8,0.1L8.4,2.7h0L8,0.1H6.6L6.5,3.5h0.9l0-3.1h0L8,3.5h0.9l0.6-3.1h0l0,3.1h0.9l-0.1-3.4H8.8z M1.6,2.6c0,0.1,0,0.2,0,0.3
	C1.6,2.9,1.5,3,1.3,3C1,3,0.9,2.9,0.9,2.7V2.4H0v0.3c0,0.8,0.6,1,1.2,1c0.6,0,1.1-0.2,1.2-0.8c0-0.3,0-0.5,0-0.6
	C2.3,1.6,1,1.4,0.9,1c0-0.1,0-0.1,0-0.2c0-0.1,0.1-0.2,0.3-0.2s0.3,0.1,0.3,0.3v0.2h0.9V0.9C2.4,0.1,1.7,0,1.2,0
	C0.6,0,0.1,0.2,0,0.8C0,0.9,0,1,0,1.2C0.2,1.9,1.4,2.1,1.6,2.6 M12.7,2.6c0,0.1,0,0.2,0,0.3c0,0.1-0.1,0.2-0.3,0.2
	c-0.2,0-0.3-0.1-0.3-0.3V2.4h-0.9v0.3c0,0.8,0.6,1,1.2,1c0.6,0,1.1-0.2,1.2-0.8c0-0.3,0-0.5,0-0.6c-0.1-0.7-1.4-0.9-1.5-1.3
	c0-0.1,0-0.1,0-0.2c0-0.1,0.1-0.2,0.3-0.2c0.2,0,0.3,0.1,0.3,0.3v0.2h0.8V0.9c0-0.7-0.7-0.9-1.1-0.9c-0.6,0-1.1,0.2-1.2,0.8
	c0,0.1,0,0.3,0,0.5C11.4,1.9,12.6,2.1,12.7,2.6 M15.6,3c0.2,0,0.3-0.2,0.3-0.3c0,0,0-0.1,0-0.1V0.1h0.9v2.5c0,0.1,0,0.2,0,0.2
	c-0.1,0.6-0.6,0.8-1.2,0.8c-0.6,0-1.1-0.2-1.2-0.8c0,0,0-0.2,0-0.2V0.1h0.9v2.5c0,0,0,0.1,0,0.1C15.3,2.9,15.4,3,15.6,3 M22.8,3
	c0.3,0,0.3-0.2,0.4-0.3c0,0,0-0.1,0-0.1V2.1h-0.4V1.6H24v0.9c0,0.1,0,0.1,0,0.2c-0.1,0.6-0.6,0.8-1.2,0.8c-0.6,0-1.1-0.2-1.2-0.8
	c0-0.1,0-0.2,0-0.2V1.1c0-0.1,0-0.2,0-0.2C21.7,0.2,22.2,0,22.8,0s1.1,0.2,1.2,0.8c0,0.1,0,0.2,0,0.2v0.1h-0.9V1c0,0,0-0.1,0-0.1
	c0-0.1-0.1-0.3-0.3-0.3c-0.3,0-0.3,0.2-0.3,0.3c0,0,0,0.1,0,0.2v1.6c0,0,0,0.1,0,0.1C22.4,2.8,22.5,3,22.8,3"/>
</svg>
