<?xml version="1.0" encoding="utf-8"?>
<!-- Generator: Adobe Illustrator 27.9.4, SVG Export Plug-In . SVG Version: 9.03 Build 54784)  -->
<svg version="1.1" id="Layer_1" xmlns="http://www.w3.org/2000/svg" xmlns:xlink="http://www.w3.org/1999/xlink" x="0px" y="0px"
	 viewBox="0 0 24 4.7" style="enable-background:new 0 0 24 4.7;" xml:space="preserve">
<path d="M13,2.7l-2.8-2.6v4.4H11V2l2.8,2.6V0.2H13V2.7z M6.5,0C5.2,0,4.1,1,4.1,2.3c0,0,0,0,0,0.1c0,1.3,1.1,2.3,2.3,2.3
	c1.3,0,2.3-1,2.3-2.3c0,0,0,0,0-0.1C8.8,1.1,7.8,0,6.5,0C6.5,0,6.5,0,6.5,0 M6.5,3.8C5.6,3.8,5,3.2,5,2.4c0,0,0,0,0,0
	c0-0.8,0.7-1.5,1.5-1.5S8,1.5,8,2.3S7.3,3.8,6.5,3.8 M2.7,2.3C2.5,2.2,2.2,2,1.7,1.9C0.9,1.7,0.9,1.4,0.9,1.3c0-0.2,0.3-0.5,0.7-0.5
	C2,0.8,2.3,1,2.4,1.1l0.1,0.1l0.7-0.5L3.1,0.6c0,0-0.5-0.6-1.4-0.6C1.2,0,0.8,0.1,0.5,0.4C0.2,0.6,0,1,0,1.3s0.2,0.7,0.5,1
	c0.2,0.2,0.5,0.3,1,0.4c0.8,0.2,0.8,0.5,0.8,0.6c0,0.2-0.3,0.5-0.7,0.5c-0.4,0-0.7-0.2-0.8-0.2L0.7,3.5L0.1,4L0.1,4
	c0,0,0.5,0.6,1.4,0.6c0.4,0,0.8-0.1,1.1-0.4C3,4,3.2,3.7,3.2,3.3C3.2,2.9,3,2.6,2.7,2.3 M17.5,0c-1.3,0-2.3,1-2.3,2.3c0,0,0,0,0,0.1
	c0,1.3,1,2.3,2.3,2.3c1.3,0,2.3-1,2.3-2.3c0,0,0,0,0-0.1C19.9,1,18.8,0,17.5,0 M17.5,3.8c-0.8,0-1.5-0.6-1.5-1.5c0,0,0,0,0,0
	c0-0.8,0.7-1.5,1.5-1.5S19,1.5,19,2.3S18.3,3.8,17.5,3.8 M21.3,2.3c0.2,0.2,0.5,0.3,1,0.4c0.8,0.2,0.8,0.5,0.8,0.6
	c0,0.2-0.3,0.5-0.7,0.5c-0.4,0-0.7-0.2-0.8-0.2h-0.1L20.9,4l0.1,0.1c0,0,0.5,0.6,1.4,0.6c0.4,0,0.8-0.1,1.1-0.4s0.5-0.6,0.5-1
	s-0.2-0.7-0.5-1c-0.2-0.2-0.5-0.3-1-0.4c-0.8-0.2-0.8-0.5-0.8-0.6c0-0.2,0.3-0.5,0.7-0.5c0.4,0,0.7,0.2,0.8,0.2l0.1,0.1l0.7-0.5
	l-0.1-0.1c0,0-0.5-0.6-1.4-0.6c-0.4,0-0.8,0.1-1.1,0.4c-0.3,0.2-0.5,0.6-0.5,1C20.8,1.7,20.9,2,21.3,2.3"/>
</svg>
