<?xml version="1.0" encoding="utf-8"?>
<!-- Generator: Adobe Illustrator 27.9.4, SVG Export Plug-In . SVG Version: 9.03 Build 54784)  -->
<svg
  version="1.1"
  id="Layer_1"
  xmlns="http://www.w3.org/2000/svg"
  xmlns:xlink="http://www.w3.org/1999/xlink"
  x="0px"
  y="0px"
  viewBox="0 0 576.4 327.7"
  style="enable-background: new 0 0 576.4 327.7"
  xml:space="preserve"
>
  <style type="text/css">
    .st03 {
      fill: url(#SVGID_1_3);
    }
    .st13 {
      fill: url(#SVGID_00000117671232063100590050000014590673262629079474_3);
    }
    .st23 {
      enable-background: new;
    }
    .st33 {
      fill: #ffffff;
    }
  </style>
  <linearGradient
    id="SVGID_1_3"
    gradientUnits="userSpaceOnUse"
    x1="201.3101"
    y1="-759.8502"
    x2="473.7101"
    y2="-487.4501"
    gradientTransform="matrix(1 0 0 -1 0 -419.94)"
  >
    <stop offset="0" style="stop-color: #8a7800" />
    <stop offset="4.000000e-02" style="stop-color: #917f08" />
    <stop offset="0.11" style="stop-color: #a3911e" />
    <stop offset="0.2" style="stop-color: #c2ae41" />
    <stop offset="0.29" style="stop-color: #ecd672" />
    <stop offset="0.33" style="stop-color: #ffe989" />
    <stop offset="0.39" style="stop-color: #f1db78" />
    <stop offset="0.51" style="stop-color: #ccb74d" />
    <stop offset="0.68" style="stop-color: #907e08" />
    <stop offset="0.7" style="stop-color: #8a7800" />
    <stop offset="0.7" style="stop-color: #8c7a02" />
    <stop offset="0.77" style="stop-color: #b5a132" />
    <stop offset="0.84" style="stop-color: #d5c058" />
    <stop offset="0.9" style="stop-color: #ecd773" />
    <stop offset="0.96" style="stop-color: #fae483" />
    <stop offset="1" style="stop-color: #ffe989" />
  </linearGradient>
  <path
    class="st03"
    d="M495.1,88.9c11.8,12.6,20.1,27.3,24.2,43.9c18.6,74.7-56.8,157.8-168.5,185.7c-109.1,27.2-212.5-8.4-234.6-79.7
	c41.4,44.4,124.7,62.7,211.7,41c111.7-27.9,187.2-111,168.5-185.7C496.1,92.2,495.6,90.5,495.1,88.9L495.1,88.9z"
  />
  <linearGradient
    id="SVGID_00000117662241884971234090000005577222943326244763_3"
    gradientUnits="userSpaceOnUse"
    x1="137.6812"
    y1="-679.9212"
    x2="409.9813"
    y2="-407.6212"
    gradientTransform="matrix(1 0 0 -1 0 -419.94)"
  >
    <stop offset="0" style="stop-color: #8a7800" />
    <stop offset="4.000000e-02" style="stop-color: #917f08" />
    <stop offset="0.11" style="stop-color: #a3911e" />
    <stop offset="0.2" style="stop-color: #c2ae41" />
    <stop offset="0.29" style="stop-color: #ecd672" />
    <stop offset="0.33" style="stop-color: #ffe989" />
    <stop offset="0.39" style="stop-color: #f1db78" />
    <stop offset="0.51" style="stop-color: #ccb74d" />
    <stop offset="0.68" style="stop-color: #907e08" />
    <stop offset="0.7" style="stop-color: #8a7800" />
    <stop offset="0.7" style="stop-color: #8c7a02" />
    <stop offset="0.77" style="stop-color: #b5a132" />
    <stop offset="0.84" style="stop-color: #d5c058" />
    <stop offset="0.9" style="stop-color: #ecd773" />
    <stop offset="0.96" style="stop-color: #fae483" />
    <stop offset="1" style="stop-color: #ffe989" />
  </linearGradient>
  <path
    style="
      fill: url(#SVGID_00000117662241884971234090000005577222943326244763_3);
    "
    d="M92,194.8C73.3,120.1,148.8,37,260.5,9.1
	C369.6-18.1,473,17.5,495.1,88.8c-41.4-44.4-124.7-62.7-211.7-41c-111.7,27.9-187.2,111-168.5,185.7c0.4,1.7,0.9,3.4,1.4,5.1
	C104.5,226.1,96.1,211.3,92,194.8L92,194.8z"
  />
  <g class="st23">
    <path
      class="st33"
      d="M47.4,218.4c-1.1-2.8-1.8-4.4-2.1-5.1l-6.4-17c-4-10.1-8.4-20.7-13.3-31.7l-9.7-22.8c-1.2-3.1-2.9-5.7-4.9-7.9
		c-2.1-2.2-4.3-3.7-6.8-4.5c-1.5-0.6-2.6-1.2-3.2-1.7s-0.9-1.3-0.9-2.4c0-1.5,1.6-2.3,4.8-2.3c4.3,0,7.7,0.2,10.1,0.7
		c3.1,0.3,6,0.5,8.7,0.5c2.8,0,6-0.2,9.7-0.5c3.1-0.5,6.7-0.7,10.8-0.7c1.1,0,2.1,0.2,3.2,0.6c1.1,0.4,1.6,1,1.6,1.7
		c0,1.1-0.3,1.8-1,2.3s-1.5,0.9-2.4,1.3c-0.9,0.4-1.5,0.7-1.8,0.8c-1.5,0.6-2.7,1.8-3.6,3.5c-0.8,1.7-1.3,3.7-1.3,6
		c0,3.1,0.3,5.3,0.9,6.7L57,190.3c0.3,0.2,0.5,0.2,0.7,0l16.1-41.9c1.1-2.6,1.6-5.5,1.6-8.7c0-2.8-0.5-4.9-1.5-6.6
		c-1-1.6-2.6-2.8-4.9-3.6c-2-0.6-3.4-1.2-4.1-1.7c-0.8-0.5-1.1-1.3-1.1-2.4c0-1.7,1.6-2.5,4.8-2.5c1.4,0,3.3,0.2,5.8,0.5
		c4.3,0.3,7.9,0.5,10.8,0.5c2.8,0,5.7-0.2,8.7-0.5c2.1-0.3,4.1-0.5,5.8-0.5c3.2,0,4.8,0.8,4.8,2.3c0,1.1-0.4,1.9-1.1,2.5
		c-0.8,0.6-2.1,1.2-3.9,1.8c-2.5,0.8-5,2.6-7.7,5.4c-2.7,2.8-4.7,6.1-6.1,9.8l-17.9,43.9c-1.4,2.9-2.9,6.5-4.6,10.7
		c-1.7,4.2-2.9,7.5-3.7,9.8c-0.3,0.8-1.2,2.9-2.8,6.3c-1.5,3.4-2.8,5.8-3.7,7h-2.8C49.4,222.5,48.5,221.1,47.4,218.4z"
    />
  </g>
  <g class="st23">
    <path
      class="st33"
      d="M124.9,214.7c-6.4-4.3-11.5-10.2-15.1-17.8s-5.4-16.3-5.4-26.1c0-8.9,2.1-17.1,6.3-24.7
		c4.2-7.6,9.9-13.6,17-18.2c7.1-4.5,14.8-6.8,23.1-6.8c9.5,0,17.4,2.8,23.6,8.5c6.2,5.7,9.3,12.8,9.3,21.4c0,2.6-0.6,4.5-1.7,5.8
		c-1.1,1.2-3,1.8-5.4,1.8H129c-2.1,0-3.6,0.6-4.5,1.8c-0.8,1.2-1.3,3.4-1.3,6.7c0,6.7,1.5,13,4.4,18.6c2.9,5.7,6.9,10.2,12.1,13.5
		c5.1,3.3,10.8,4.9,16.9,4.9c8.6,0,16.3-3.4,23-10.1c0.8-1.2,1.6-1.8,2.5-1.8c1.4,0,2.1,0.8,2.1,2.5c0,2.3-1.1,5.2-3.2,8.7
		c-3.2,5.2-7.9,9.5-13.9,12.8c-6.1,3.3-12.8,4.9-20.1,4.9C138.7,221.1,131.3,219,124.9,214.7z M147.7,150.7c6.9,0,12.2-0.4,15.9-1.2
		c1.4-0.5,2.1-2.4,2.1-5.8c0-4.3-1.8-7.9-5.3-10.9s-7.7-4.5-12.6-4.5c-3.2,0-6.5,1-9.9,3s-6.1,4.5-8.2,7.6c-2.1,3.1-3.1,6.1-3.1,9
		c0,1.8,1,2.8,3,2.8L147.7,150.7L147.7,150.7z"
    />
    <path
      class="st33"
      d="M196.2,215.6c0-1.1,0.4-1.9,1.3-2.5c0.8-0.6,2.2-1.2,4-1.6c3.1-0.6,5.3-1.6,6.7-3.1s2.1-3.3,2.1-5.6v-50.6
		c0-4.1-0.6-7.5-1.8-10s-3.4-4.2-6.7-4.9c-0.6-0.2-1.2-0.5-1.7-1.2c-0.5-0.6-0.8-1.4-0.8-2.3c0-1.5,0.8-2.6,2.3-3.2
		c4-1.1,8.4-2.7,13.2-4.8c4.8-2.1,9-4.2,12.5-6.2c2-1.2,3.4-1.8,4.1-1.8c1.1,0,1.6,0.6,1.6,1.8l-0.7,17.7c0,0.6,0.2,0.9,0.5,0.9
		c4-5.1,8.4-9.2,13.2-12.4c4.8-3.2,9.5-4.8,14.1-4.8c4,0,7.1,0.8,9.2,2.4s3.2,3.7,3.2,6.3c0,2.9-1.1,6-3.3,9.2
		c-2.2,3.2-4.6,4.8-7.2,4.8c-1.2,0-3.7-0.8-7.4-2.5c-0.6-0.3-1.7-0.8-3.3-1.5s-3-1-4.3-1c-4.4,0-8.1,1.5-11,4.6s-4.4,8.3-4.4,15.6
		V202c0,2.3,0.9,4.1,2.8,5.5c1.8,1.4,4.9,2.8,9.2,4.1c1.8,0.5,3.2,1,4,1.6s1.3,1.4,1.3,2.3c0,1.8-1.5,2.8-4.4,2.8
		c-4.4,0-8.5-0.2-12.2-0.7c-4.6-0.3-8.1-0.5-10.6-0.5s-5.7,0.2-9.7,0.5c-3.2,0.5-7,0.7-11.3,0.7
		C197.7,218.4,196.2,217.4,196.2,215.6z"
    />
    <path
      class="st33"
      d="M278.8,215.6c0-1.7,1.6-3,4.8-3.9c3.8-1.1,6.5-2.2,8-3.3s2.3-3,2.3-5.4v-49.7c0-9.8-3.5-15.3-10.4-16.3
		c-1.5-0.2-2.3-1.3-2.3-3.4c0-1.8,0.7-2.8,2.1-3c10-2.1,19.4-6.2,28.3-12.2c1.8-1.1,3.1-1.6,3.7-1.6c1.2,0,1.8,0.6,1.8,1.8
		c0,0.9-0.3,4.4-0.9,10.6c-0.9,9.2-1.4,16.3-1.4,21.4V203c0,2.3,0.8,4.1,2.4,5.4c1.6,1.3,4.3,2.4,7.9,3.3c3.2,0.9,4.8,2.2,4.8,3.9
		c0,1.8-1.4,2.8-4.1,2.8c-4,0-7.7-0.2-11.3-0.7c-4.3-0.3-7.7-0.5-10.4-0.5c-2.6,0-5.9,0.2-9.9,0.5c-3.2,0.5-7,0.7-11.3,0.7
		C280.2,218.4,278.8,217.4,278.8,215.6z M294.1,96.8c-2.7-2.7-4-5.9-4-9.8c0-4,1.3-7.3,4-10s5.9-4,9.8-4c4,0,7.4,1.3,10.1,4
		c2.8,2.7,4.1,6,4.1,10c0,3.8-1.4,7.1-4.1,9.8c-2.8,2.7-6.1,4-10.1,4C300,100.8,296.7,99.5,294.1,96.8z"
    />
    <path
      class="st33"
      d="M360.5,213.8c-4.5-4.8-6.8-11.7-6.8-20.9v-53.4c0-1.2-0.5-2.1-1.6-2.6s-3-0.8-5.8-0.8h-1.8
		c-0.9,0-1.7-0.6-2.3-1.8c-0.6-1.2-0.9-2.5-0.9-3.9c0-0.5,0.2-0.9,0.6-1.4s0.7-0.8,1-0.9c4.3-2.5,8.7-5.6,13.3-9.4
		c4.6-3.8,8.5-7.4,11.7-10.8c0.2-0.2,0.7-0.7,1.6-1.6s1.9-1.4,3-1.4c2.3,0,3.4,1.1,3.2,3.4l-1.4,11.3v0.9c0,1.4,0.5,2.3,1.4,2.9
		c0.9,0.5,2.3,0.8,4.1,0.8h26.7c0.5,0,0.9,0.5,1.4,1.6s0.7,2.1,0.7,3.2c0,1.7-0.2,3.3-0.7,4.8s-1,2.3-1.6,2.3H384
		c-3.8,0-6.3,0.4-7.5,1.2s-1.7,2.5-1.7,5.3v44.6c0,6.4,1.3,11.4,3.9,14.8c2.6,3.5,6.3,5.2,11,5.2c4,0,7.2-0.3,9.5-0.9
		c2.4-0.6,4.6-1.6,6.8-3l1.2-0.5c1.2,0,1.8,1.2,1.8,3.7c0,1.1-1.5,2.8-4.5,5.2s-6.7,4.5-11.2,6.4c-4.4,1.9-9,2.9-13.6,2.9
		C371.5,220.9,365,218.5,360.5,213.8z"
    />
    <path
      class="st33"
      d="M429.5,217.8c-3.1-2.1-5.7-4.7-7.7-7.8s-3-6.2-3-9.3c0-4.9,1.4-8.9,4.1-12c2.8-3.1,7.2-5.9,13.3-8.5l22.3-9.4
		c3.1-1.2,4.9-2.3,5.5-3.2s1-3,1.1-6.2l0.5-14c0.2-4.3-0.9-7.8-3.1-10.5s-5.3-4-9.3-4c-2.1,0-4.3,0.4-6.6,1.2c-2.2,0.8-4,1.8-5.4,3
		c-1.2,1.2-1.8,3.2-1.8,6l0.2,5.1c0,1.2-2.2,3-6.6,5.2s-7.9,3.3-10.5,3.3c-0.9,0-1.6-0.3-2.2-0.9c-0.5-0.6-0.8-1.3-0.8-2.1
		c0-5.1,3.2-10.3,9.7-15.9c5.4-4.8,11.5-8.7,18.4-11.8c6.9-3.1,12.8-4.7,17.7-4.7c6.4,0,11.7,2.2,15.6,6.6c4,4.4,5.9,10,5.8,16.9
		l-1.1,52c-0.2,3.4,0.5,6.1,2.1,8.3c1.5,2.1,3.5,3.2,5.8,3.2c3.7,0,6.4-0.9,8.3-2.8c0.6-0.6,1.2-0.9,1.6-0.9c0.8,0,1.4,0.3,2,0.8
		c0.5,0.5,0.8,1.1,0.8,1.7c0,1.7-1.1,3.6-3.2,5.8c-2.6,2.6-5.4,4.6-8.4,6.1s-5.9,2.2-8.6,2.2c-7.8,0-14-4.1-18.4-12.4h-0.7
		c-5.1,4.4-9.8,7.6-14.3,9.5c-4.4,1.9-9,2.9-13.8,2.9C435.8,220.9,432.7,219.8,429.5,217.8z M462.1,203.6c1.5-1.5,2.4-4.3,2.5-8.3
		l0.5-13.1V181c0-2.1-0.7-3.2-2.1-3.2c-0.9,0-2.2,0.4-3.9,1.2c-6.7,2.6-11.5,5.3-14.4,8c-2.8,2.8-4.3,5.9-4.3,9.4
		c0,3.8,1,6.8,3.1,8.9c2.1,2.1,4.5,3.1,7.2,3.1C455.1,208.5,458.8,206.9,462.1,203.6z"
    />
    <path
      class="st33"
      d="M515.7,212.8c-0.9-1.7-1.6-4.6-2.2-8.9c-0.5-4.2-0.8-8.3-0.8-12.3c0-1.5,1.2-2.3,3.5-2.3
		c0.8,0,1.5,0.2,2.2,0.6c0.7,0.4,1.2,0.9,1.5,1.5c2.1,7.1,5.3,12.5,9.4,16.2c4.1,3.8,8.7,5.6,13.8,5.6c4.3,0,7.8-1.4,10.6-4.3
		c2.8-2.8,4.1-6.2,4.1-10.2s-1.3-7.4-4-10.2s-7.2-6.2-13.7-10c-8-4.6-13.9-9.2-17.7-13.7s-5.8-9.9-5.8-16.2c0-8.1,3-14.8,9-20
		s14-7.8,24.2-7.8c4.4,0,8.5,0.5,12.1,1.4s6.2,2,7.9,3.2c1.2,1.7,2.3,4.4,3.1,8.2s1.3,7.6,1.3,11.6c0,0.6-0.3,1.1-0.9,1.4
		c-0.6,0.3-1.3,0.5-2.1,0.5c-1.1,0-2.1-0.3-3.1-0.8s-1.6-1.1-1.7-1.7c-4.3-10.9-10.4-16.3-18.4-16.3c-3.8,0-7.2,1.2-10,3.6
		c-2.8,2.4-4.3,5.5-4.3,9.3c0,3.4,1.2,6.4,3.7,9.1c2.5,2.7,6.5,5.6,12.2,8.9c9.8,5.5,16.8,10.5,20.8,15.1c4.1,4.5,6.1,10.3,6.1,17.4
		c0,9-3.2,16.2-9.7,21.5c-6.4,5.3-15,7.9-25.8,7.9C530.7,220.9,522.2,218.2,515.7,212.8z"
    />
  </g>
</svg>
