<svg viewBox="0 0 168.626 120.09">
  <title>Verkada</title>
  <path
    d="m65.093,48.326L112.663.767c1.023-1.022,2.683-1.022,3.707.001l15.513,15.509c1.023,1.023,1.024,2.682.001,3.706l-45.719,45.706c-1.023,1.023-2.683,1.023-3.707-.001l-17.366-17.362Z"
  ></path>
  <path
    d="m36.743,19.983c-1.024-1.023-1.024-2.684,0-3.707L52.255.768c1.024-1.023,2.684-1.023,3.708,0l24.051,24.045-19.22,19.215-24.051-24.044"
  ></path>
  <path
    d="m0,86.39h6.169l9.728,25.868,9.728-25.868h6.169l-12.575,33.225h-6.643L0,86.39Z"
  ></path>
  <path
    d="m51.207,116.055s-3.086,4.034-9.73,4.034c-6.882,0-12.341-5.458-12.341-12.103s5.458-12.103,12.104-12.103,11.391,5.221,11.391,11.629c0,1.424-.237,2.611-.237,2.611h-17.324c.569,2.611,2.848,4.984,6.645,4.984,4.035,0,6.408-2.895,6.408-2.895l3.086,3.844Zm-4.509-10.442c-.712-2.611-2.611-4.509-5.696-4.509-3.322,0-5.221,1.898-5.933,4.509h11.629Z"
  ></path>
  <path
    d="m57.05,96.358h5.458v3.323h.237s2.373-3.797,6.645-3.797h.949v5.933s-.712-.237-1.898-.237c-3.323,0-5.933,2.611-5.933,6.645v11.391h-5.458v-23.257Z"
  ></path>
  <path
    d="m73.767,86.39h5.458v20.172l9.256-10.205h6.645l-8.781,9.73,9.256,13.527h-6.17l-6.645-9.73-3.56,4.034v5.696h-5.458v-33.225Z"
  ></path>
  <path
    d="m111.756,116.53h-.238s-2.136,3.56-6.882,3.56c-4.509,0-7.595-3.085-7.595-6.645,0-3.797,2.848-6.645,6.882-7.357l7.832-1.424c0-1.661-1.899-3.56-4.509-3.56-3.465,0-5.696,2.848-5.696,2.848l-3.323-3.322s3.323-4.747,9.256-4.747c5.695,0,9.73,4.177,9.73,9.256v14.476h-5.458v-3.085Zm0-7.594l-5.459.949c-2.848.522-3.797,1.424-3.797,2.848s1.424,2.848,3.56,2.848c3.086,0,5.696-2.611,5.696-5.933v-.712Z"
  ></path>
  <path
    d="m139.19,116.293h-.238s-2.136,3.797-7.594,3.797-10.442-4.984-10.442-12.103,4.984-12.103,10.442-12.103,7.594,3.797,7.594,3.797h.238v-13.29h5.458v33.225h-5.458v-3.322Zm0-8.306c0-3.797-2.848-6.645-6.408-6.645s-6.408,2.848-6.408,6.645,2.848,6.645,6.408,6.645,6.408-2.848,6.408-6.645Z"
  ></path>
  <path
    d="m163.168,116.53h-.237s-2.136,3.56-6.882,3.56c-4.509,0-7.594-3.085-7.594-6.645,0-3.797,2.848-6.645,6.882-7.357l7.832-1.424c0-1.661-1.898-3.56-4.509-3.56-3.465,0-5.695,2.848-5.695,2.848l-3.323-3.322s3.323-4.747,9.255-4.747c5.696,0,9.73,4.177,9.73,9.256v14.476h-5.458v-3.085Zm0-7.594l-5.458.949c-2.848.522-3.797,1.424-3.797,2.848s1.424,2.848,3.56,2.848c3.085,0,5.695-2.611,5.695-5.933v-.712Z"
  ></path>
</svg>
