<?xml version="1.0" encoding="utf-8"?>
<!-- Generator: Adobe Illustrator 27.3.1, SVG Export Plug-In . SVG Version: 6.00 Build 0)  -->
<svg version="1.1" id="main" xmlns="http://www.w3.org/2000/svg" xmlns:xlink="http://www.w3.org/1999/xlink" x="0px" y="0px"
	 viewBox="0 0 643.4 643.4" style="enable-background:new 0 0 643.4 643.4;" xml:space="preserve">
<style type="text/css">
	.st0{fill:url(#SVGID_1_);}
	.st1{fill:url(#SVGID_00000051383060682023641770000015922197213211181956_);}
	.st2{enable-background:new    ;}
	.st3{fill:#FFFFFF;}
</style>
<linearGradient id="SVGID_1_" gradientUnits="userSpaceOnUse" x1="249.3751" y1="-2745.3335" x2="480.9153" y2="-2513.7937" gradientTransform="matrix(1 0 0 -1 0 -2273.9399)">
	<stop  offset="0" style="stop-color:#8A7800"/>
	<stop  offset="4.000000e-02" style="stop-color:#917F08"/>
	<stop  offset="0.11" style="stop-color:#A3911E"/>
	<stop  offset="0.2" style="stop-color:#C2AE41"/>
	<stop  offset="0.29" style="stop-color:#ECD672"/>
	<stop  offset="0.33" style="stop-color:#FFE989"/>
	<stop  offset="0.39" style="stop-color:#F1DB78"/>
	<stop  offset="0.51" style="stop-color:#CCB74D"/>
	<stop  offset="0.68" style="stop-color:#907E08"/>
	<stop  offset="0.7" style="stop-color:#8A7800"/>
	<stop  offset="0.7" style="stop-color:#8C7A02"/>
	<stop  offset="0.77" style="stop-color:#B5A132"/>
	<stop  offset="0.84" style="stop-color:#D5C058"/>
	<stop  offset="0.9" style="stop-color:#ECD773"/>
	<stop  offset="0.96" style="stop-color:#FAE483"/>
	<stop  offset="1" style="stop-color:#FFE989"/>
</linearGradient>
<path class="st0" d="M499.1,258c10,10.7,17.1,23.2,20.6,37.3c15.8,63.5-48.3,134.1-143.2,157.8c-92.7,23.1-180.6-7.1-199.4-67.7
	c35.2,37.7,106,53.3,179.9,34.9c94.9-23.7,159.1-94.4,143.2-157.8C499.9,260.8,499.5,259.4,499.1,258L499.1,258L499.1,258z"/>
<linearGradient id="SVGID_00000027594013200831021790000013392555610879550095_" gradientUnits="userSpaceOnUse" x1="195.2907" y1="-2677.394" x2="426.7455" y2="-2445.939" gradientTransform="matrix(1 0 0 -1 0 -2273.9399)">
	<stop  offset="0" style="stop-color:#8A7800"/>
	<stop  offset="4.000000e-02" style="stop-color:#917F08"/>
	<stop  offset="0.11" style="stop-color:#A3911E"/>
	<stop  offset="0.2" style="stop-color:#C2AE41"/>
	<stop  offset="0.29" style="stop-color:#ECD672"/>
	<stop  offset="0.33" style="stop-color:#FFE989"/>
	<stop  offset="0.39" style="stop-color:#F1DB78"/>
	<stop  offset="0.51" style="stop-color:#CCB74D"/>
	<stop  offset="0.68" style="stop-color:#907E08"/>
	<stop  offset="0.7" style="stop-color:#8A7800"/>
	<stop  offset="0.7" style="stop-color:#8C7A02"/>
	<stop  offset="0.77" style="stop-color:#B5A132"/>
	<stop  offset="0.84" style="stop-color:#D5C058"/>
	<stop  offset="0.9" style="stop-color:#ECD773"/>
	<stop  offset="0.96" style="stop-color:#FAE483"/>
	<stop  offset="1" style="stop-color:#FFE989"/>
</linearGradient>
<path style="fill:url(#SVGID_00000027594013200831021790000013392555610879550095_);" d="M156.5,348.1
	c-15.9-63.5,48.3-134.1,143.2-157.8c92.7-23.1,180.6,7.1,199.4,67.7c-35.2-37.7-106-53.3-179.9-34.9
	c-94.9,23.7-159.1,94.4-143.2,157.8c0.3,1.4,0.8,2.9,1.2,4.3C167.1,374.7,159.9,362.1,156.5,348.1L156.5,348.1L156.5,348.1z"/>
<g class="st2">
	<path class="st3" d="M97.8,309.8c-3-7.2-4.7-13.5-11.7-14.5l-3.9-0.6c-1.2-1.5-0.9-4.3,0.6-4.9c4.9,0.4,11.7,0.6,18.4,0.6
		c5.3,0,9.2-0.2,15.8-0.6c1.4,0.8,1.5,3.9,0.2,4.9l-2.4,0.4c-6,1-6.3,2-4.3,7.8c4.5,13.5,10.2,27.2,14.6,37.3
		c1.8,3.9,2.5,5.7,3.1,6.3c0.8-0.6,2.1-3.3,3.7-7.4l11.1-28.7c2.7-6.9,3.5-11,3.5-12.2c0-1.8-1.2-2.5-3.5-3l-4.3-0.6
		c-1.2-1.4-0.9-4.1,0.4-4.9c6,0.4,11,0.6,14.6,0.6c4.9,0,8.2-0.2,13.7-0.6c1.4,0.8,1.5,3.7,0.4,4.9l-3,0.4c-6.8,1-8.6,6-14.3,17
		c-2.7,5.3-14.9,33.7-18,41.7c-2,4.9-3.9,9.3-6.5,16.1c-0.4,0.6-1.2,0.8-2,0.8c-1,0-2-0.2-2.5-0.8c-1.5-5.4-4.5-13.1-7.4-20.3
		L97.8,309.8z"/>
</g>
<g class="st2">
	<path class="st3" d="M191.7,317.5c-5.1,0-5.3,0.4-5.3,5.3c0,19.7,11.6,36.5,32.5,36.5c6.5,0,11.9-2,18-9.6c2-0.6,3.3,0.6,3.5,2.4
		c-6.5,13.3-20.5,18.2-30.7,18.2c-12.7,0-22.7-5.4-28.3-12.9c-5.9-7.6-8.2-16.8-8.2-25.4c0-24.1,15.8-44.2,39.3-44.2
		c16.8,0,27.8,11.6,27.8,23.3c0,2.7-0.4,4.3-0.8,5.1c-0.6,1.2-3.3,1.4-11.6,1.4H191.7z M203.8,311.6c14.4,0,18.8-0.8,20.3-2
		c0.6-0.4,1.2-1.2,1.2-3.7c0-5.4-3.7-12.3-15-12.3c-11.6,0-21.5,10.5-21.7,17c0,0.4,0,1,1.4,1L203.8,311.6L203.8,311.6z"/>
	<path class="st3" d="M262.8,311.3c0-7.7,0-8.6-5.3-12.2l-1.8-1.2c-0.8-0.8-0.8-3,0.2-3.5c4.5-1.5,14.9-6.6,19.7-9.6
		c0.9,0.2,1.5,0.6,1.5,1.4v11.3c0,0.9,0.2,1.5,0.6,1.8c6.9-5.7,14.3-11.7,21.5-11.7c4.9,0,8.8,3.1,8.8,7.8c0,6.5-5.3,9-8.4,9
		c-2,0-3-0.6-4.3-1.4c-2.9-2-5.9-3.1-8.6-3.1c-3.1,0-5.4,1.8-7.1,3.9c-2,2.7-2.6,8.4-2.6,15v26.6c0,14.1,0.4,16.4,7.8,17l7.1,0.6
		c1.4,0.9,0.9,4.3-0.4,4.9c-9.2-0.4-14.9-0.6-21.7-0.6c-7.1,0-12.9,0.2-18,0.6c-1.4-0.6-1.8-3.9-0.4-4.9l3.7-0.6
		c7.2-1.2,7.4-3,7.4-17v-34.2H262.8z"/>
	<path class="st3" d="M327.7,311.3c0-7.7,0-8.6-5.3-12.2l-1.8-1.2c-0.8-0.8-0.8-3,0.2-3.5c4.5-1.5,15.6-6.6,20.1-9.6
		c0.9,0,1.8,0.4,2,1.2c-0.4,6.8-0.8,16.2-0.8,24.2v35.2c0,14.1,0.4,16.1,7.4,17l4.1,0.6c1.4,0.9,1,4.3-0.4,4.9
		c-5.9-0.4-11.6-0.6-18.4-0.6c-7.1,0-12.9,0.2-18.4,0.6c-1.4-0.6-1.8-3.9-0.4-4.9l4.1-0.6c7.2-0.9,7.4-3,7.4-17v-34.2H327.7z
		 M344,255.7c0,7.1-4.9,10.2-10.4,10.2c-6,0-9.9-4.5-9.9-9.8c0-6.5,4.7-10.5,10.5-10.5C340.1,245.5,344,250.1,344,255.7z"/>
	<path class="st3" d="M394,298.7c-3.3,0-3.5,0.6-3.5,4.7v36.6c0,11.3,1.4,21.7,14.3,21.7c2,0,3.7-0.4,5.3-1c1.8-0.6,4.3-2.7,4.9-2.7
		c1.5,0,2.4,2.1,2,3.3c-3.5,4.1-10.5,9-20.5,9c-16.8,0-20.3-9.4-20.3-21.1v-44.8c0-5.3-0.2-5.7-4.1-5.7h-5.4
		c-1.2-0.8-1.4-2.9-0.6-4.1c5.7-1.8,10.5-4.3,12.5-6c2.5-2.4,6.3-7.7,8.2-11.6c1-0.4,3.3-0.4,4.1,1v8.8c0,3.5,0.2,3.7,3.5,3.7h21.7
		c2.4,1.8,2,7.1,0.2,8.2L394,298.7L394,298.7z"/>
	<path class="st3" d="M465.2,327c3-0.9,3.3-2.7,3.3-5.7l0.2-9c0.2-7.2-2.1-17-14.3-17c-5.4,0-12.2,2.7-12.5,8.8
		c-0.2,3.1-0.4,5.4-2,6.6c-3,2.4-8.2,3.7-11.1,3.7c-1.8,0-2.7-0.9-2.7-2.7c0-10.2,22.1-24.1,36.4-24.1c14.1,0,20.9,8.2,20.3,22.9
		l-1.2,34c-0.4,9,1.4,17,9,17c2,0,3.7-0.6,4.9-1.2c1-0.6,2-1.4,2.5-1.4c0.8,0,1.4,1.2,1.4,2.5c0,0.9-6.8,8.6-16.4,8.6
		c-4.7,0-9.3-1.8-12.7-6c-0.8-1.2-2-2.7-3.1-2.7c-1.4,0-3.7,1.8-7.6,3.9c-4.3,2.4-8.6,4.9-14.1,4.9c-5.7,0-10.4-1.5-13.7-4.5
		c-3.7-3.3-6-8.2-6-13.7c0-7.6,3.7-12.2,16.2-16.6L465.2,327z M453,361.4c3.9,0,9.9-3,11.9-4.9c2.4-2.4,2.4-5.1,2.6-9.2l0.4-11.6
		c0-2.1-0.8-2.5-2-2.5s-4.5,0.8-8,2c-11.6,3.9-17.2,6.8-17.2,14.5C440.7,353,443.1,361.4,453,361.4z"/>
	<path class="st3" d="M551.4,291.2c1.8,4.3,3.1,10.5,3.1,15.8c-0.8,1.4-3.7,1.8-4.7,0.6c-3.3-8.6-9.2-14.3-17.2-14.3
		c-7.7,0-12.5,4.8-12.5,11.9c0,8,8.2,12.3,15,16.2c10.4,5.9,20,12.5,20,26.3c0,14.9-13.7,22.3-28.1,22.3c-9.2,0-16.1-2-20.9-5.9
		c-1.5-3.7-2.7-13.3-2.4-19.7c0.9-1.2,3.5-1.4,4.5-0.2c3.3,10.8,9.6,20.1,20.7,20.1c7.1,0,13.1-4.1,13.1-12.5c0-9-7.8-13.9-15-18
		c-11.3-6.5-19.4-13.3-19.4-24.1c0-14.3,11.7-22.3,26.6-22.3C542.4,287.7,549.6,289.7,551.4,291.2z"/>
</g>
</svg>
