<?xml version="1.0" encoding="utf-8"?>
<!-- Generator: Adobe Illustrator 27.3.1, SVG Export Plug-In . SVG Version: 6.00 Build 0)  -->
<svg version="1.1" id="main" xmlns="http://www.w3.org/2000/svg" xmlns:xlink="http://www.w3.org/1999/xlink" x="0px" y="0px"
	 viewBox="0 0 643.4 643.4" style="enable-background:new 0 0 643.4 643.4;" xml:space="preserve">
<style type="text/css">
	.st0{fill:url(#SVGID_1_);}
	.st1{fill:url(#SVGID_00000007420721715805331020000015109113863995871408_);}
	.st2{enable-background:new    ;}
	.st3{fill:#FFFFFF;}
</style>
<linearGradient id="SVGID_1_" gradientUnits="userSpaceOnUse" x1="237.21" y1="3417.75" x2="509.6102" y2="3145.3501" gradientTransform="matrix(1 0 0 1 0 -2919.9399)">
	<stop  offset="0" style="stop-color:#8A7800"/>
	<stop  offset="4.000000e-02" style="stop-color:#917F08"/>
	<stop  offset="0.11" style="stop-color:#A3911E"/>
	<stop  offset="0.2" style="stop-color:#C2AE41"/>
	<stop  offset="0.29" style="stop-color:#ECD672"/>
	<stop  offset="0.33" style="stop-color:#FFE989"/>
	<stop  offset="0.39" style="stop-color:#F1DB78"/>
	<stop  offset="0.51" style="stop-color:#CCB74D"/>
	<stop  offset="0.68" style="stop-color:#907E08"/>
	<stop  offset="0.7" style="stop-color:#8A7800"/>
	<stop  offset="0.7" style="stop-color:#8C7A02"/>
	<stop  offset="0.77" style="stop-color:#B5A132"/>
	<stop  offset="0.84" style="stop-color:#D5C058"/>
	<stop  offset="0.9" style="stop-color:#ECD773"/>
	<stop  offset="0.96" style="stop-color:#FAE483"/>
	<stop  offset="1" style="stop-color:#FFE989"/>
</linearGradient>
<path class="st0" d="M531,246.8c11.8,12.6,20.1,27.3,24.2,43.9c18.6,74.7-56.8,157.8-168.5,185.7c-109.1,27.2-212.5-8.4-234.6-79.7
	c41.4,44.4,124.7,62.7,211.7,41C475.5,409.8,551,326.7,532.3,252C532,250.1,531.5,248.4,531,246.8L531,246.8L531,246.8z"/>
<linearGradient id="SVGID_00000024710712624400624290000004341658719212695222_" gradientUnits="userSpaceOnUse" x1="173.5813" y1="3337.8213" x2="445.8812" y2="3065.521" gradientTransform="matrix(1 0 0 1 0 -2919.9399)">
	<stop  offset="0" style="stop-color:#8A7800"/>
	<stop  offset="4.000000e-02" style="stop-color:#917F08"/>
	<stop  offset="0.11" style="stop-color:#A3911E"/>
	<stop  offset="0.2" style="stop-color:#C2AE41"/>
	<stop  offset="0.29" style="stop-color:#ECD672"/>
	<stop  offset="0.33" style="stop-color:#FFE989"/>
	<stop  offset="0.39" style="stop-color:#F1DB78"/>
	<stop  offset="0.51" style="stop-color:#CCB74D"/>
	<stop  offset="0.68" style="stop-color:#907E08"/>
	<stop  offset="0.7" style="stop-color:#8A7800"/>
	<stop  offset="0.7" style="stop-color:#8C7A02"/>
	<stop  offset="0.77" style="stop-color:#B5A132"/>
	<stop  offset="0.84" style="stop-color:#D5C058"/>
	<stop  offset="0.9" style="stop-color:#ECD773"/>
	<stop  offset="0.96" style="stop-color:#FAE483"/>
	<stop  offset="1" style="stop-color:#FFE989"/>
</linearGradient>
<path style="fill:url(#SVGID_00000024710712624400624290000004341658719212695222_);" d="M127.9,352.7
	C109.2,278,184.7,194.9,296.4,167c109.1-27.2,212.5,8.4,234.6,79.7c-41.4-44.4-124.7-62.7-211.7-41
	c-111.7,27.9-187.2,111-168.5,185.7c0.4,1.7,0.9,3.4,1.4,5.1C140.4,384,132,369.2,127.9,352.7L127.9,352.7L127.9,352.7z"/>
<g class="st2">
	<path class="st3" d="M58.9,307.7c-3.5-8.5-5.5-15.9-13.8-17l-4.6-0.7c-1.4-1.8-1.1-5.1,0.7-5.8c5.8,0.5,13.8,0.7,21.6,0.7
		c6.2,0,10.8-0.2,18.6-0.7c1.6,0.9,1.8,4.6,0.2,5.8l-2.8,0.5c-7.1,1.2-7.4,2.3-5.1,9.2c5.3,15.9,12,32,17.2,43.9
		c2.1,4.6,3,6.7,3.7,7.4c0.9-0.7,2.5-3.9,4.4-8.7l13.1-33.8c3.2-8.1,4.1-12.9,4.1-14.3c0-2.1-1.4-3-4.1-3.5L107,290
		c-1.4-1.6-1.1-4.8,0.5-5.8c7.1,0.5,12.9,0.7,17.2,0.7c5.8,0,9.7-0.2,16.1-0.7c1.6,0.9,1.8,4.4,0.5,5.8l-3.5,0.5
		c-8,1.2-10.1,7.1-16.8,20c-3.2,6.2-17.5,39.6-21.2,49c-2.3,5.8-4.6,11-7.6,18.9c-0.5,0.7-1.4,0.9-2.3,0.9c-1.2,0-2.3-0.2-3-0.9
		c-1.8-6.4-5.3-15.4-8.7-23.9L58.9,307.7z"/>
</g>
<g class="st2">
	<path class="st3" d="M169.3,316.7c-6,0-6.2,0.5-6.2,6.2c0,23.2,13.6,43,38.2,43c7.6,0,14-2.3,21.2-11.3c2.3-0.7,3.9,0.7,4.1,2.8
		c-7.6,15.6-24.1,21.4-36.1,21.4c-14.9,0-26.7-6.4-33.3-15.2c-6.9-9-9.7-19.8-9.7-29.9c0-28.3,18.6-52,46.2-52
		c19.8,0,32.7,13.6,32.7,27.4c0,3.2-0.5,5.1-0.9,6c-0.7,1.4-3.9,1.6-13.6,1.6H169.3z M183.6,309.8c17,0,22.1-0.9,23.9-2.3
		c0.7-0.5,1.4-1.4,1.4-4.4c0-6.4-4.4-14.5-17.7-14.5c-13.6,0-25.3,12.4-25.5,20c0,0.5,0,1.2,1.6,1.2H183.6z"/>
	<path class="st3" d="M253,309.5c0-9,0-10.1-6.2-14.3l-2.1-1.4c-0.9-0.9-0.9-3.5,0.2-4.1c5.3-1.8,17.5-7.8,23.2-11.3
		c1.1,0.2,1.8,0.7,1.8,1.6v13.3c0,1.1,0.2,1.8,0.7,2.1c8.1-6.7,16.8-13.8,25.3-13.8c5.8,0,10.3,3.7,10.3,9.2
		c0,7.6-6.2,10.6-9.9,10.6c-2.3,0-3.5-0.7-5.1-1.6c-3.4-2.3-6.9-3.7-10.1-3.7c-3.7,0-6.4,2.1-8.3,4.6c-2.3,3.2-3,9.9-3,17.7v31.3
		c0,16.6,0.5,19.3,9.2,20l8.3,0.7c1.6,1.1,1.1,5.1-0.5,5.8c-10.8-0.5-17.5-0.7-25.5-0.7c-8.3,0-15.2,0.2-21.2,0.7
		c-1.6-0.7-2.1-4.6-0.5-5.8l4.4-0.7c8.5-1.4,8.7-3.5,8.7-20V309.5z"/>
	<path class="st3" d="M329.4,309.5c0-9,0-10.1-6.2-14.3l-2.1-1.4c-0.9-0.9-0.9-3.5,0.2-4.1c5.3-1.8,18.4-7.8,23.7-11.3
		c1.1,0,2.1,0.5,2.3,1.4c-0.5,8-0.9,19.1-0.9,28.5v41.4c0,16.6,0.5,18.9,8.7,20l4.8,0.7c1.6,1.1,1.2,5.1-0.5,5.8
		c-6.9-0.5-13.6-0.7-21.6-0.7c-8.3,0-15.2,0.2-21.6,0.7c-1.6-0.7-2.1-4.6-0.5-5.8l4.8-0.7c8.5-1.1,8.7-3.5,8.7-20V309.5z M348.5,244
		c0,8.3-5.8,12-12.2,12c-7.1,0-11.7-5.3-11.7-11.5c0-7.6,5.5-12.4,12.4-12.4C343.9,232,348.5,237.5,348.5,244z"/>
	<path class="st3" d="M407.4,294.6c-3.9,0-4.1,0.7-4.1,5.5v43c0,13.3,1.6,25.5,16.8,25.5c2.3,0,4.4-0.5,6.2-1.2
		c2.1-0.7,5.1-3.2,5.8-3.2c1.8,0,2.8,2.5,2.3,3.9c-4.1,4.8-12.4,10.6-24.1,10.6c-19.8,0-23.9-11-23.9-24.8v-52.7
		c0-6.2-0.2-6.7-4.8-6.7h-6.4c-1.4-0.9-1.6-3.4-0.7-4.8c6.7-2.1,12.4-5.1,14.7-7.1c3-2.8,7.4-9,9.7-13.6c1.2-0.5,3.9-0.5,4.8,1.2
		v10.3c0,4.1,0.2,4.4,4.1,4.4h25.5c2.8,2.1,2.3,8.3,0.2,9.7H407.4z"/>
	<path class="st3" d="M491.1,327.9c3.5-1.1,3.9-3.2,3.9-6.7l0.2-10.6c0.2-8.5-2.5-20-16.8-20c-6.4,0-14.3,3.2-14.7,10.3
		c-0.2,3.7-0.5,6.4-2.3,7.8c-3.5,2.8-9.7,4.4-13.1,4.4c-2.1,0-3.2-1.1-3.2-3.2c0-12,26-28.3,42.8-28.3c16.6,0,24.6,9.7,23.9,26.9
		l-1.4,40c-0.5,10.6,1.6,20,10.6,20c2.3,0,4.4-0.7,5.8-1.4c1.2-0.7,2.3-1.6,3-1.6c0.9,0,1.6,1.4,1.6,3c0,1.1-8,10.1-19.3,10.1
		c-5.5,0-11-2.1-14.9-7.1c-0.9-1.4-2.3-3.2-3.7-3.2c-1.6,0-4.4,2.1-9,4.6c-5.1,2.8-10.1,5.8-16.6,5.8c-6.7,0-12.2-1.8-16.1-5.3
		c-4.4-3.9-7.1-9.7-7.1-16.1c0-9,4.4-14.3,19.1-19.5L491.1,327.9z M476.8,368.4c4.6,0,11.7-3.5,14-5.8c2.8-2.8,2.8-6,3-10.8
		l0.5-13.6c0-2.5-0.9-3-2.3-3c-1.4,0-5.3,0.9-9.4,2.3c-13.6,4.6-20.2,8-20.2,17C462.3,358.5,465.1,368.4,476.8,368.4z"/>
	<path class="st3" d="M592.5,285.8c2.1,5.1,3.7,12.4,3.7,18.6c-0.9,1.6-4.4,2.1-5.5,0.7c-3.9-10.1-10.8-16.8-20.2-16.8
		c-9,0-14.7,5.7-14.7,14c0,9.4,9.7,14.5,17.7,19.1c12.2,6.9,23.5,14.7,23.5,31c0,17.5-16.1,26.2-33.1,26.2
		c-10.8,0-18.9-2.3-24.6-6.9c-1.8-4.4-3.2-15.6-2.8-23.2c1.1-1.4,4.1-1.6,5.3-0.2c3.9,12.7,11.3,23.7,24.4,23.7
		c8.3,0,15.4-4.8,15.4-14.7c0-10.6-9.2-16.3-17.7-21.2c-13.3-7.6-22.8-15.6-22.8-28.3c0-16.8,13.8-26.2,31.3-26.2
		C581.9,281.7,590.4,284,592.5,285.8z"/>
</g>
</svg>
