<?xml version="1.0" standalone="no"?>
<!DOCTYPE svg PUBLIC "-//W3C//DTD SVG 20010904//EN"
 "http://www.w3.org/TR/2001/REC-SVG-20010904/DTD/svg10.dtd">
<svg version="1.0" xmlns="http://www.w3.org/2000/svg"
 width="700.000000pt" height="700.000000pt" viewBox="0 0 700.000000 700.000000"
 preserveAspectRatio="xMidYMid meet">
<metadata>
Created by potrace 1.14, written by Peter Selinger 2001-2017
</metadata>
<g transform="translate(0.000000,700.000000) scale(0.100000,-0.100000)"
fill="#000000" stroke="none">
<path d="M3978 5285 c-2 -1 -64 -6 -139 -9 -75 -4 -145 -8 -155 -10 -10 -2
-41 -7 -69 -10 -447 -59 -889 -207 -1249 -421 -395 -234 -714 -555 -874 -881
l-27 -55 -148 4 c-137 5 -148 4 -158 -14 -14 -27 -4 -37 46 -50 25 -6 49 -16
54 -23 14 -17 -17 -116 -108 -351 -98 -252 -110 -277 -123 -273 -5 2 -25 39
-44 83 -19 44 -39 89 -43 100 -59 135 -151 391 -151 419 0 24 21 37 83 50 27
6 35 29 19 51 -4 6 -93 10 -230 10 l-223 0 -6 -24 c-7 -28 5 -36 60 -45 67
-11 92 -49 186 -277 173 -420 219 -536 241 -602 25 -73 52 -100 75 -75 8 7 36
69 63 138 144 361 314 730 351 764 19 18 19 17 5 -31 -14 -45 -24 -84 -39
-158 -13 -60 -13 -262 0 -342 27 -169 92 -324 194 -460 79 -108 92 -115 71
-43 -6 19 -14 58 -18 85 -9 66 -8 292 2 330 l8 30 17 -43 c41 -105 132 -194
243 -240 88 -36 228 -41 319 -10 84 27 165 83 211 144 68 89 35 131 -41 55
-66 -66 -93 -76 -201 -76 -85 1 -102 4 -160 32 -36 17 -79 43 -96 59 -84 77
-140 205 -148 341 -3 56 -1 75 11 85 11 9 92 12 316 14 166 1 312 2 324 3 44
2 49 101 9 183 -31 65 -39 75 -99 121 -74 56 -207 86 -295 66 l-34 -7 24 26
c100 114 297 281 455 385 430 283 936 458 1488 515 141 14 622 6 676 -12 8 -3
32 -7 54 -10 72 -9 198 -37 304 -67 287 -83 526 -214 716 -391 22 -20 41 -35
43 -34 1 2 -7 28 -18 57 -115 294 -392 553 -752 705 -184 78 -426 143 -598
160 -36 3 -68 8 -71 10 -3 2 -71 6 -150 9 -79 4 -156 8 -171 10 -15 2 -28 2
-30 0z m-1786 -1452 c51 -30 79 -79 76 -132 -3 -44 -5 -46 -43 -57 -22 -6
-124 -12 -227 -13 -220 -2 -214 -7 -140 99 45 66 89 101 150 121 43 14 147 4
184 -18z"/>
<path d="M3632 4469 c-93 -19 -132 -141 -67 -211 60 -64 172 -52 211 23 27 52
12 133 -30 168 -23 19 -76 28 -114 20z"/>
<path d="M5780 4307 c0 -3 7 -34 14 -69 56 -241 24 -493 -95 -748 -44 -94
-126 -230 -138 -230 -5 0 -7 13 -5 28 2 15 5 118 8 229 4 163 2 211 -10 255
-29 102 -113 160 -233 161 -36 0 -77 -2 -91 -6 -219 -53 -432 -236 -377 -324
11 -17 81 -7 134 19 42 21 45 26 59 103 12 69 63 106 153 110 98 4 161 -44
181 -141 10 -50 7 -206 -5 -235 -4 -11 -77 -42 -193 -84 -294 -106 -342 -143
-342 -258 0 -107 59 -191 156 -222 78 -24 147 -17 234 26 38 20 70 33 70 29 0
-16 -206 -182 -335 -269 -377 -255 -898 -453 -1335 -507 -19 -2 -44 -6 -55 -9
-89 -20 -547 -28 -695 -12 -133 14 -153 18 -290 47 -366 78 -678 233 -897 446
l-33 32 7 -27 c24 -97 143 -290 246 -399 179 -188 474 -354 777 -439 62 -17
218 -51 270 -59 19 -3 46 -7 60 -9 14 -3 57 -7 95 -11 39 -3 86 -7 105 -10 45
-5 351 -5 410 0 25 3 76 8 115 11 59 6 328 49 360 59 6 1 37 8 70 15 235 50
656 214 845 329 19 12 42 25 50 29 24 11 192 123 250 166 197 147 403 361 519
540 33 51 48 66 60 61 93 -39 124 -47 207 -50 236 -9 386 102 387 285 0 135
-66 221 -249 331 -163 97 -184 126 -184 254 0 35 37 82 76 97 106 40 220 -20
281 -148 26 -56 73 -38 67 26 -3 43 -24 131 -36 153 -25 50 -265 69 -366 30
-28 -11 -54 -17 -56 -14 -2 4 -16 38 -31 77 -16 38 -40 90 -55 115 -14 25 -29
52 -32 60 -7 17 -128 166 -128 157z m368 -971 c140 -87 183 -146 177 -238 -11
-150 -201 -195 -324 -76 -41 41 -49 64 -31 96 10 18 67 180 69 197 3 30 14 75
17 75 2 0 44 -24 92 -54z m-775 1 c3 -8 3 -63 0 -123 -5 -130 -18 -157 -87
-192 -154 -77 -286 22 -247 185 3 9 62 57 86 71 45 24 186 71 216 72 15 0 29
-6 32 -13z"/>
<path d="M4310 4023 c-47 -75 -111 -128 -182 -154 -53 -20 -59 -25 -56 -48 3
-24 7 -25 60 -26 32 -1 61 -4 65 -8 3 -4 7 -170 8 -369 1 -344 2 -365 21 -408
44 -96 112 -130 249 -126 89 3 163 30 223 83 35 31 39 45 19 61 -10 8 -22 6
-46 -9 -70 -43 -173 -34 -225 18 -50 50 -56 99 -56 437 0 170 2 312 5 315 3 3
76 5 162 6 145 0 156 1 169 20 9 14 11 30 6 50 l-8 30 -165 5 -164 5 -3 79
c-1 44 -4 81 -6 83 -2 2 -12 5 -22 7 -15 3 -29 -10 -54 -51z"/>
<path d="M2788 3907 c-76 -37 -128 -69 -131 -79 -3 -12 5 -25 26 -40 70 -47
67 -29 66 -389 0 -180 -3 -339 -8 -355 -9 -36 -46 -61 -95 -67 -42 -6 -56 -19
-49 -48 5 -17 17 -18 182 -17 97 1 213 0 259 -2 45 -2 85 -1 88 2 9 10 13 48
4 53 -4 3 -37 8 -71 11 -76 7 -96 17 -111 52 -7 17 -11 127 -12 287 -2 353 6
406 70 445 39 25 84 20 155 -16 55 -29 91 -28 130 6 39 32 50 96 25 136 -53
80 -175 60 -312 -52 -35 -29 -59 -42 -63 -35 -4 6 -6 41 -5 78 1 68 -3 94 -15
92 -3 0 -63 -28 -133 -62z"/>
<path d="M3727 3956 c-11 -8 -68 -36 -128 -63 -124 -54 -134 -71 -73 -112 19
-13 40 -33 46 -45 7 -13 10 -129 9 -349 -2 -396 0 -390 -90 -408 -59 -11 -76
-25 -65 -53 4 -11 51 -14 250 -14 134 0 244 3 245 7 0 3 2 14 4 23 4 22 -2 25
-46 33 -61 10 -87 26 -99 58 -7 22 -10 175 -9 482 2 480 3 477 -44 441z"/>
</g>
</svg>
